<svg width="24" height="24" viewBox="0 0 24 24" fill="none" xmlns="http://www.w3.org/2000/svg">
<g clip-path="url(#clip0_2296_110202)">
<mask id="mask0_2296_110202" style="mask-type:alpha" maskUnits="userSpaceOnUse" x="0" y="0" width="24" height="24">
<rect width="24" height="24" rx="8" fill="url(#paint0_linear_2296_110202)"/>
</mask>
<g mask="url(#mask0_2296_110202)">
<rect width="24" height="24" rx="8" fill="url(#paint1_linear_2296_110202)"/>
<rect width="24" height="24" rx="8" fill="url(#paint2_linear_2296_110202)"/>
<rect width="24" height="24" rx="8" fill="url(#paint3_linear_2296_110202)"/>
<path fill-rule="evenodd" clip-rule="evenodd" d="M6.94999 8C6.71836 9.14112 5.70948 10 4.5 10C3.29052 10 2.28164 9.14112 2.05001 8C2.01722 8.16155 2 8.32877 2 8.5C2 9.88071 3.11929 11 4.5 11C5.88071 11 7 9.88071 7 8.5C7 8.32877 6.98278 8.16155 6.94999 8Z" fill="#AC0404"/>
<path fill-rule="evenodd" clip-rule="evenodd" d="M18.95 8C18.7184 9.14112 17.7095 10 16.5 10C15.2905 10 14.2816 9.14112 14.05 8C14.0172 8.16155 14 8.32877 14 8.5C14 9.88071 15.1193 11 16.5 11C17.8807 11 19 9.88071 19 8.5C19 8.32877 18.9828 8.16155 18.95 8Z" fill="#AC0404"/>
<path d="M7 7.5C7 8.88071 5.88071 10 4.5 10C3.11929 10 2 8.88071 2 7.5C2 6.11929 3.11929 5 4.5 5C5.88071 5 7 6.11929 7 7.5Z" fill="url(#paint4_linear_2296_110202)"/>
<path fill-rule="evenodd" clip-rule="evenodd" d="M4.5 9.75C5.74264 9.75 6.75 8.74264 6.75 7.5C6.75 6.25736 5.74264 5.25 4.5 5.25C3.25736 5.25 2.25 6.25736 2.25 7.5C2.25 8.74264 3.25736 9.75 4.5 9.75ZM4.5 10C5.88071 10 7 8.88071 7 7.5C7 6.11929 5.88071 5 4.5 5C3.11929 5 2 6.11929 2 7.5C2 8.88071 3.11929 10 4.5 10Z" fill="white"/>
<path d="M19 7.5C19 8.88071 17.8807 10 16.5 10C15.1193 10 14 8.88071 14 7.5C14 6.11929 15.1193 5 16.5 5C17.8807 5 19 6.11929 19 7.5Z" fill="url(#paint5_linear_2296_110202)"/>
<path fill-rule="evenodd" clip-rule="evenodd" d="M16.5 9.75C17.7426 9.75 18.75 8.74264 18.75 7.5C18.75 6.25736 17.7426 5.25 16.5 5.25C15.2574 5.25 14.25 6.25736 14.25 7.5C14.25 8.74264 15.2574 9.75 16.5 9.75ZM16.5 10C17.8807 10 19 8.88071 19 7.5C19 6.11929 17.8807 5 16.5 5C15.1193 5 14 6.11929 14 7.5C14 8.88071 15.1193 10 16.5 10Z" fill="white"/>
<rect opacity="0.5" x="6" y="6" width="9" height="3" fill="white"/>
<path fill-rule="evenodd" clip-rule="evenodd" d="M9.94999 16C9.71836 17.1411 8.70948 18 7.5 18C6.29052 18 5.28164 17.1411 5.05001 16C5.01722 16.1616 5 16.3288 5 16.5C5 17.8807 6.11929 19 7.5 19C8.88071 19 10 17.8807 10 16.5C10 16.3288 9.98278 16.1616 9.94999 16Z" fill="#AC0404"/>
<path fill-rule="evenodd" clip-rule="evenodd" d="M21.95 16C21.7184 17.1411 20.7095 18 19.5 18C18.2905 18 17.2816 17.1411 17.05 16C17.0172 16.1616 17 16.3288 17 16.5C17 17.8807 18.1193 19 19.5 19C20.8807 19 22 17.8807 22 16.5C22 16.3288 21.9828 16.1616 21.95 16Z" fill="#AC0404"/>
<path d="M10 15.5C10 16.8807 8.88071 18 7.5 18C6.11929 18 5 16.8807 5 15.5C5 14.1193 6.11929 13 7.5 13C8.88071 13 10 14.1193 10 15.5Z" fill="url(#paint6_linear_2296_110202)"/>
<path fill-rule="evenodd" clip-rule="evenodd" d="M7.5 17.75C8.74264 17.75 9.75 16.7426 9.75 15.5C9.75 14.2574 8.74264 13.25 7.5 13.25C6.25736 13.25 5.25 14.2574 5.25 15.5C5.25 16.7426 6.25736 17.75 7.5 17.75ZM7.5 18C8.88071 18 10 16.8807 10 15.5C10 14.1193 8.88071 13 7.5 13C6.11929 13 5 14.1193 5 15.5C5 16.8807 6.11929 18 7.5 18Z" fill="white"/>
<path d="M22 15.5C22 16.8807 20.8807 18 19.5 18C18.1193 18 17 16.8807 17 15.5C17 14.1193 18.1193 13 19.5 13C20.8807 13 22 14.1193 22 15.5Z" fill="url(#paint7_linear_2296_110202)"/>
<path fill-rule="evenodd" clip-rule="evenodd" d="M19.5 17.75C20.7426 17.75 21.75 16.7426 21.75 15.5C21.75 14.2574 20.7426 13.25 19.5 13.25C18.2574 13.25 17.25 14.2574 17.25 15.5C17.25 16.7426 18.2574 17.75 19.5 17.75ZM19.5 18C20.8807 18 22 16.8807 22 15.5C22 14.1193 20.8807 13 19.5 13C18.1193 13 17 14.1193 17 15.5C17 16.8807 18.1193 18 19.5 18Z" fill="white"/>
<rect opacity="0.5" x="9" y="14" width="9" height="3" fill="white"/>
</g>
</g>
<defs>
<linearGradient id="paint0_linear_2296_110202" x1="12" y1="0" x2="12" y2="24" gradientUnits="userSpaceOnUse">
<stop stop-color="#1E7ADE"/>
<stop offset="1" stop-color="#8451F0"/>
</linearGradient>
<linearGradient id="paint1_linear_2296_110202" x1="12" y1="0" x2="12" y2="24" gradientUnits="userSpaceOnUse">
<stop stop-color="#72C2FC"/>
<stop offset="1" stop-color="#6D1398"/>
</linearGradient>
<linearGradient id="paint2_linear_2296_110202" x1="12" y1="0" x2="12" y2="24" gradientUnits="userSpaceOnUse">
<stop stop-color="#838383"/>
<stop offset="1" stop-color="#131313"/>
</linearGradient>
<linearGradient id="paint3_linear_2296_110202" x1="12" y1="0" x2="12" y2="24" gradientUnits="userSpaceOnUse">
<stop stop-color="#FF8383"/>
<stop offset="1" stop-color="#D71D1D"/>
</linearGradient>
<linearGradient id="paint4_linear_2296_110202" x1="4.5" y1="5.83333" x2="6.16667" y2="10.4167" gradientUnits="userSpaceOnUse">
<stop offset="0.265" stop-color="white"/>
<stop offset="1" stop-color="#ECECEC" stop-opacity="0.5"/>
</linearGradient>
<linearGradient id="paint5_linear_2296_110202" x1="16.5" y1="5.83333" x2="18.1667" y2="10.4167" gradientUnits="userSpaceOnUse">
<stop offset="0.265" stop-color="white"/>
<stop offset="1" stop-color="#ECECEC" stop-opacity="0.5"/>
</linearGradient>
<linearGradient id="paint6_linear_2296_110202" x1="7.5" y1="13.8333" x2="9.16667" y2="18.4167" gradientUnits="userSpaceOnUse">
<stop offset="0.265" stop-color="white"/>
<stop offset="1" stop-color="#ECECEC" stop-opacity="0.5"/>
</linearGradient>
<linearGradient id="paint7_linear_2296_110202" x1="19.5" y1="13.8333" x2="21.1667" y2="18.4167" gradientUnits="userSpaceOnUse">
<stop offset="0.265" stop-color="white"/>
<stop offset="1" stop-color="#ECECEC" stop-opacity="0.5"/>
</linearGradient>
<clipPath id="clip0_2296_110202">
<rect width="24" height="24" fill="white"/>
</clipPath>
</defs>
</svg>
