<svg width="24" height="24" viewBox="0 0 24 24" fill="none" xmlns="http://www.w3.org/2000/svg">
<g clip-path="url(#clip0_2298_110313)">
<mask id="mask0_2298_110313" style="mask-type:alpha" maskUnits="userSpaceOnUse" x="0" y="0" width="24" height="24">
<rect width="24" height="24" rx="8" fill="url(#paint0_linear_2298_110313)"/>
</mask>
<g mask="url(#mask0_2298_110313)">
<rect width="24" height="24" rx="8" fill="url(#paint1_linear_2298_110313)"/>
<rect width="24" height="24" rx="8" fill="url(#paint2_linear_2298_110313)"/>
<rect width="24" height="24" rx="8" fill="url(#paint3_linear_2298_110313)"/>
<rect width="24" height="24" rx="8" fill="url(#paint4_linear_2298_110313)"/>
<path d="M6 12C6 13.1046 5.10457 14 4 14C2.89543 14 2 13.1046 2 12C2 10.8954 2.89543 10 4 10C5.10457 10 6 10.8954 6 12Z" fill="url(#paint5_linear_2298_110313)"/>
<path fill-rule="evenodd" clip-rule="evenodd" d="M4 13.75C4.9665 13.75 5.75 12.9665 5.75 12C5.75 11.0335 4.9665 10.25 4 10.25C3.0335 10.25 2.25 11.0335 2.25 12C2.25 12.9665 3.0335 13.75 4 13.75ZM4 14C5.10457 14 6 13.1046 6 12C6 10.8954 5.10457 10 4 10C2.89543 10 2 10.8954 2 12C2 13.1046 2.89543 14 4 14Z" fill="white"/>
<path fill-rule="evenodd" clip-rule="evenodd" d="M5.93699 12.5C5.71497 13.3626 4.93192 14 4 14C3.06808 14 2.28503 13.3626 2.06301 12.5C2.02188 12.6598 2 12.8274 2 13C2 14.1046 2.89543 15 4 15C5.10457 15 6 14.1046 6 13C6 12.8274 5.97812 12.6598 5.93699 12.5Z" fill="#205E05"/>
<rect opacity="0.5" x="5" y="11" width="11" height="2" fill="white"/>
<path d="M21.963 12.0001C21.637 15.2158 18.8669 17.7273 15.4978 17.7273C12.1287 17.7273 9.35855 15.2158 9.03257 12.0001C9.01135 12.2094 9.00049 12.4216 9.00049 12.6364C9.00049 16.1509 11.9094 19 15.4978 19C19.0861 19 21.9951 16.1509 21.9951 12.6364C21.9951 12.4216 21.9842 12.2094 21.963 12.0001Z" fill="#205E05"/>
<path d="M21.9946 11.3636C21.9946 14.8781 19.0857 17.7272 15.4973 17.7272C11.9089 17.7272 9 14.8781 9 11.3636C9 7.84908 11.9089 5 15.4973 5C19.0857 5 21.9946 7.84908 21.9946 11.3636Z" fill="url(#paint6_linear_2298_110313)"/>
<path d="M21.9946 11.3636C21.9946 14.8781 19.0857 17.7272 15.4973 17.7272C11.9089 17.7272 9 14.8781 9 11.3636C9 7.84908 11.9089 5 15.4973 5C19.0857 5 21.9946 7.84908 21.9946 11.3636Z" fill="url(#paint7_radial_2298_110313)" fill-opacity="0.2" style="mix-blend-mode:plus-lighter"/>
<path fill-rule="evenodd" clip-rule="evenodd" d="M15.4973 16.8939C18.6418 16.8939 21.1613 14.4016 21.1613 11.3636C21.1613 8.32557 18.6418 5.83333 15.4973 5.83333C12.3528 5.83333 9.83333 8.32557 9.83333 11.3636C9.83333 14.4016 12.3528 16.8939 15.4973 16.8939ZM15.4973 17.7272C19.0857 17.7272 21.9946 14.8781 21.9946 11.3636C21.9946 7.84908 19.0857 5 15.4973 5C11.9089 5 9 7.84908 9 11.3636C9 14.8781 11.9089 17.7272 15.4973 17.7272Z" fill="url(#paint8_linear_2298_110313)"/>
<path d="M16.5362 7.29088C16.5362 6.72856 16.0708 6.27271 15.4967 6.27271C14.9225 6.27271 14.4571 6.72856 14.4571 7.29088V10.3454L11.3384 10.3454C10.7643 10.3454 10.2988 10.8013 10.2988 11.3636C10.2988 11.9259 10.7643 12.3818 11.3384 12.3818H14.4571V15.4363C14.4571 15.9986 14.9225 16.4545 15.4967 16.4545C16.0708 16.4545 16.5362 15.9986 16.5362 15.4363V12.3818H19.6549C20.2291 12.3818 20.6945 11.9259 20.6945 11.3636C20.6945 10.8013 20.2291 10.3454 19.6549 10.3454L16.5362 10.3454V7.29088Z" fill="#205E05"/>
</g>
</g>
<defs>
<linearGradient id="paint0_linear_2298_110313" x1="12" y1="0" x2="12" y2="24" gradientUnits="userSpaceOnUse">
<stop stop-color="#1E7ADE"/>
<stop offset="1" stop-color="#8451F0"/>
</linearGradient>
<linearGradient id="paint1_linear_2298_110313" x1="12" y1="0" x2="12" y2="24" gradientUnits="userSpaceOnUse">
<stop stop-color="#72C2FC"/>
<stop offset="1" stop-color="#6D1398"/>
</linearGradient>
<linearGradient id="paint2_linear_2298_110313" x1="12" y1="0" x2="12" y2="24" gradientUnits="userSpaceOnUse">
<stop stop-color="#FFAE12"/>
<stop offset="1" stop-color="#FF5353"/>
</linearGradient>
<linearGradient id="paint3_linear_2298_110313" x1="12" y1="0" x2="12" y2="24" gradientUnits="userSpaceOnUse">
<stop stop-color="#6BEEDE"/>
<stop offset="1" stop-color="#00B1D8"/>
</linearGradient>
<linearGradient id="paint4_linear_2298_110313" x1="12" y1="0" x2="12" y2="24" gradientUnits="userSpaceOnUse">
<stop stop-color="#BAEC2D"/>
<stop offset="1" stop-color="#1A6F05"/>
</linearGradient>
<linearGradient id="paint5_linear_2298_110313" x1="4" y1="10.6667" x2="5.33333" y2="14.3333" gradientUnits="userSpaceOnUse">
<stop offset="0.265" stop-color="white"/>
<stop offset="1" stop-color="#ECECEC" stop-opacity="0.5"/>
</linearGradient>
<linearGradient id="paint6_linear_2298_110313" x1="14.4144" y1="11.3636" x2="19.6965" y2="4.89197" gradientUnits="userSpaceOnUse">
<stop stop-color="white" stop-opacity="0.8"/>
<stop offset="1" stop-color="#CCCCCC" stop-opacity="0.5"/>
</linearGradient>
<radialGradient id="paint7_radial_2298_110313" cx="0" cy="0" r="1" gradientUnits="userSpaceOnUse" gradientTransform="translate(15.4973 14.5454) rotate(90) scale(6.36359 6.49728)">
<stop stop-color="#FFB800"/>
<stop offset="0.83" stop-color="#ECC767" stop-opacity="0"/>
</radialGradient>
<linearGradient id="paint8_linear_2298_110313" x1="15.4973" y1="5" x2="15.4973" y2="17.7272" gradientUnits="userSpaceOnUse">
<stop stop-color="white"/>
<stop offset="1" stop-color="#E7FFE8" stop-opacity="0"/>
</linearGradient>
<clipPath id="clip0_2298_110313">
<rect width="24" height="24" fill="white"/>
</clipPath>
</defs>
</svg>
