<svg
    width="24"
    height="24"
    viewBox="0 0 24 24"
    fill="currentColor"
    xmlns="http://www.w3.org/2000/svg"
  >
    <path
      opacity="0.4"
      d="M6.375 21H17.625C19.875 21 21 19.875 21 17.625V6.375C21 4.125 19.875 3 17.625 3H6.375C4.125 3 3 4.125 3 6.375V17.625C3 19.875 4.125 21 6.375 21Z"
      fill-opacity="0.56"
    />
    <path
      d="M12.9998 15.75C12.8078 15.75 12.6157 15.6771 12.4697 15.5301L9.46975 12.5301C9.17675 12.2371 9.17675 11.762 9.46975 11.469L12.4697 8.46902C12.7627 8.17602 13.2378 8.17602 13.5308 8.46902C13.8238 8.76202 13.8238 9.23705 13.5308 9.53005L11.0608 12L13.5308 14.47C13.8238 14.763 13.8238 15.238 13.5308 15.531C13.3838 15.677 13.1918 15.75 12.9998 15.75Z"
      fill-opacity="0.56"
    />
  </svg>
  