<svg width="24" height="24" viewBox="0 0 24 24" fill="none" xmlns="http://www.w3.org/2000/svg">
<g clip-path="url(#clip0_6826_30467)">
<mask id="mask0_6826_30467" style="mask-type:alpha" maskUnits="userSpaceOnUse" x="0" y="0" width="24" height="24">
<path d="M0 8C0 3.58172 3.58172 0 8 0H16C20.4183 0 24 3.58172 24 8V16C24 20.4183 20.4183 24 16 24H8C3.58172 24 0 20.4183 0 16V8Z" fill="url(#paint0_linear_6826_30467)"/>
</mask>
<g mask="url(#mask0_6826_30467)">
<path d="M0 8C0 3.58172 3.58172 0 8 0H16C20.4183 0 24 3.58172 24 8V16C24 20.4183 20.4183 24 16 24H8C3.58172 24 0 20.4183 0 16V8Z" fill="url(#paint1_linear_6826_30467)"/>
<path d="M5 4C5 3.44771 5.44772 3 6 3H18C18.5523 3 19 3.44772 19 4V21C19 21.5523 18.5523 22 18 22H6C5.44772 22 5 21.5523 5 21V4Z" fill="url(#paint2_linear_6826_30467)"/>
<path fill-rule="evenodd" clip-rule="evenodd" d="M2 17V18C2 19.1046 2.89543 20 4 20H8C9.10457 20 10 19.1046 10 18V17C10 18.1046 9.10457 19 8 19H4C2.89543 19 2 18.1046 2 17Z" fill="#0A1E54"/>
<path d="M2 13C2 11.8954 2.89543 11 4 11H8C9.10457 11 10 11.8954 10 13V17C10 18.1046 9.10457 19 8 19H4C2.89543 19 2 18.1046 2 17V13Z" fill="url(#paint3_linear_6826_30467)"/>
<path fill-rule="evenodd" clip-rule="evenodd" d="M8 11.5H4C3.17157 11.5 2.5 12.1716 2.5 13V17C2.5 17.8284 3.17157 18.5 4 18.5H8C8.82843 18.5 9.5 17.8284 9.5 17V13C9.5 12.1716 8.82843 11.5 8 11.5ZM4 11C2.89543 11 2 11.8954 2 13V17C2 18.1046 2.89543 19 4 19H8C9.10457 19 10 18.1046 10 17V13C10 11.8954 9.10457 11 8 11H4Z" fill="white"/>
<path fill-rule="evenodd" clip-rule="evenodd" d="M3.29289 12.2929C3.68342 11.9024 4.31658 11.9024 4.70711 12.2929L6 13.5858L7.29289 12.2929C7.68342 11.9024 8.31658 11.9024 8.70711 12.2929C9.09763 12.6834 9.09763 13.3166 8.70711 13.7071L7.41421 15L8.70711 16.2929C9.09763 16.6834 9.09763 17.3166 8.70711 17.7071C8.31658 18.0976 7.68342 18.0976 7.29289 17.7071L6 16.4142L4.70711 17.7071C4.31658 18.0976 3.68342 18.0976 3.29289 17.7071C2.90237 17.3166 2.90237 16.6834 3.29289 16.2929L4.58579 15L3.29289 13.7071C2.90237 13.3166 2.90237 12.6834 3.29289 12.2929Z" fill="#0A1E54"/>
<path fill-rule="evenodd" clip-rule="evenodd" d="M14 17V18C14 19.1046 14.8954 20 16 20H20C21.1046 20 22 19.1046 22 18V17C22 18.1046 21.1046 19 20 19H16C14.8954 19 14 18.1046 14 17Z" fill="#0A1E54"/>
<path d="M14 13C14 11.8954 14.8954 11 16 11H20C21.1046 11 22 11.8954 22 13V17C22 18.1046 21.1046 19 20 19H16C14.8954 19 14 18.1046 14 17V13Z" fill="url(#paint4_linear_6826_30467)"/>
<path fill-rule="evenodd" clip-rule="evenodd" d="M20 11.5H16C15.1716 11.5 14.5 12.1716 14.5 13V17C14.5 17.8284 15.1716 18.5 16 18.5H20C20.8284 18.5 21.5 17.8284 21.5 17V13C21.5 12.1716 20.8284 11.5 20 11.5ZM16 11C14.8954 11 14 11.8954 14 13V17C14 18.1046 14.8954 19 16 19H20C21.1046 19 22 18.1046 22 17V13C22 11.8954 21.1046 11 20 11H16Z" fill="white"/>
<path fill-rule="evenodd" clip-rule="evenodd" d="M20.9265 12.3884C21.3792 12.7047 21.4898 13.3281 21.1735 13.7808L18.0844 18.2025L15.3553 16.0332C14.923 15.6895 14.8511 15.0605 15.1948 14.6281C15.5384 14.1958 16.1675 14.1239 16.5998 14.4675L17.6634 15.313L19.534 12.6354C19.8503 12.1827 20.4738 12.0721 20.9265 12.3884Z" fill="#1D7B8E"/>
<path fill-rule="evenodd" clip-rule="evenodd" d="M8 5.5C8 5.22386 8.22386 5 8.5 5H12.5C12.7761 5 13 5.22386 13 5.5C13 5.77614 12.7761 6 12.5 6H8.5C8.22386 6 8 5.77614 8 5.5Z" fill="#0A1E54"/>
<path fill-rule="evenodd" clip-rule="evenodd" d="M8 7.5C8 7.22386 8.22386 7 8.5 7H15.5C15.7761 7 16 7.22386 16 7.5C16 7.77614 15.7761 8 15.5 8H8.5C8.22386 8 8 7.77614 8 7.5Z" fill="#0A1E54"/>
<path fill-rule="evenodd" clip-rule="evenodd" d="M8 9.5C8 9.22386 8.22386 9 8.5 9H15.5C15.7761 9 16 9.22386 16 9.5C16 9.77614 15.7761 10 15.5 10H8.5C8.22386 10 8 9.77614 8 9.5Z" fill="#0A1E54"/>
</g>
</g>
<defs>
<linearGradient id="paint0_linear_6826_30467" x1="12" y1="0" x2="12" y2="24" gradientUnits="userSpaceOnUse">
<stop stop-color="#1E7ADE"/>
<stop offset="1" stop-color="#8451F0"/>
</linearGradient>
<linearGradient id="paint1_linear_6826_30467" x1="12" y1="0" x2="12" y2="24" gradientUnits="userSpaceOnUse">
<stop stop-color="#39DFA3"/>
<stop offset="1" stop-color="#011478"/>
</linearGradient>
<linearGradient id="paint2_linear_6826_30467" x1="12.3684" y1="22" x2="13.822" y2="3.11186" gradientUnits="userSpaceOnUse">
<stop stop-color="white" stop-opacity="0"/>
<stop offset="1" stop-color="white" stop-opacity="0.7"/>
</linearGradient>
<linearGradient id="paint3_linear_6826_30467" x1="5.94377" y1="19.5714" x2="2.21179" y2="11.0223" gradientUnits="userSpaceOnUse">
<stop offset="0.17" stop-color="white"/>
<stop offset="1" stop-color="#ECECEC" stop-opacity="0.5"/>
</linearGradient>
<linearGradient id="paint4_linear_6826_30467" x1="17.9438" y1="19.5714" x2="14.2118" y2="11.0223" gradientUnits="userSpaceOnUse">
<stop offset="0.17" stop-color="white"/>
<stop offset="1" stop-color="#ECECEC" stop-opacity="0.5"/>
</linearGradient>
<clipPath id="clip0_6826_30467">
<rect width="24" height="24" fill="white"/>
</clipPath>
</defs>
</svg>
