<svg width="24" height="24" viewBox="0 0 24 24" fill="currentColor" xmlns="http://www.w3.org/2000/svg">
<path opacity="0.4" d="M6.375 21H17.625C19.875 21 21 19.875 21 17.625V6.375C21 4.125 19.875 3 17.625 3H6.375C4.125 3 3 4.125 3 6.375V17.625C3 19.875 4.125 21 6.375 21Z" fill-opacity="1"/>
<path d="M8.66699 12.418C8.47499 12.418 8.28296 12.345 8.13696 12.198L6.46997 10.531C6.40097 10.462 6.34708 10.3811 6.30908 10.2901C6.27108 10.1991 6.25098 10.101 6.25098 10.001C6.25098 9.901 6.27208 9.80294 6.30908 9.71194C6.34708 9.62094 6.40197 9.53899 6.46997 9.46999L8.13696 7.803C8.42996 7.51 8.905 7.51 9.198 7.803C9.491 8.096 9.491 8.57104 9.198 8.86404L8.81104 9.251H15C15.414 9.251 15.75 9.587 15.75 10.001C15.75 10.415 15.414 10.751 15 10.751H8.81104L9.19702 11.137C9.49002 11.429 9.49002 11.905 9.19702 12.198C9.05102 12.345 8.85899 12.418 8.66699 12.418ZM17.75 13.9981C17.75 13.8981 17.7289 13.8 17.6919 13.709C17.6539 13.618 17.599 13.5361 17.531 13.4671L15.864 11.8001C15.571 11.5071 15.096 11.5071 14.803 11.8001C14.51 12.0931 14.51 12.5681 14.803 12.8611L15.189 13.2471H9C8.586 13.2471 8.25 13.5831 8.25 13.9971C8.25 14.4111 8.586 14.7471 9 14.7471H15.189L14.803 15.1331C14.51 15.4251 14.51 15.9011 14.803 16.1941C14.949 16.3401 15.141 16.4141 15.333 16.4141C15.524 16.4141 15.717 16.3411 15.863 16.1941L17.53 14.5271C17.599 14.4581 17.6529 14.3759 17.6909 14.2849C17.7289 14.1959 17.75 14.0981 17.75 13.9981Z" fill-opacity="1"/></svg>
