<svg width="24" height="24" viewBox="0 0 24 24" fill="none" xmlns="http://www.w3.org/2000/svg">
<mask id="mask0_2298_110424" style="mask-type:alpha" maskUnits="userSpaceOnUse" x="0" y="0" width="24" height="24">
<rect width="24" height="24" rx="8" fill="url(#paint0_linear_2298_110424)"/>
</mask>
<rect width="24" height="24" rx="8" fill="url(#paint1_linear_2298_110424)"/>
<rect width="24" height="24" rx="8" fill="url(#paint2_radial_2298_110424)" fill-opacity="0.2" style="mix-blend-mode:hard-light"/>
<path fill-rule="evenodd" clip-rule="evenodd" d="M16.375 20H7.625C5.875 20 5 19.1111 5 17.3333V18.3333C5 20.1111 5.875 21 7.625 21H16.375C18.125 21 19 20.1111 19 18.3333V17.3333C19 19.1111 18.125 20 16.375 20Z" fill="#262626"/>
<path d="M7.625 20H16.375C18.125 20 19 19.1111 19 17.3333V6.66667C19 4.88889 18.125 4 16.375 4H7.625C5.875 4 5 4.88889 5 6.66667V17.3333C5 19.1111 5.875 20 7.625 20Z" fill="url(#paint3_linear_2298_110424)"/>
<path d="M8.5 10H15.5C16.5 10 17 9.5 17 8.5V7.5C17 6.5 16.5 6 15.5 6H8.5C7.5 6 7 6.5 7 7.5V8.5C7 9.5 7.5 10 8.5 10Z" fill="url(#paint4_linear_2298_110424)"/>
<path fill-rule="evenodd" clip-rule="evenodd" d="M8.5 9.75H15.5C15.9615 9.75 16.2616 9.6348 16.4482 9.44822C16.6348 9.26164 16.75 8.96146 16.75 8.5V7.5C16.75 7.03854 16.6348 6.73836 16.4482 6.55178C16.2616 6.3652 15.9615 6.25 15.5 6.25H8.5C8.03854 6.25 7.73836 6.3652 7.55178 6.55178C7.3652 6.73836 7.25 7.03854 7.25 7.5V8.5C7.25 8.96146 7.3652 9.26164 7.55178 9.44822C7.73836 9.6348 8.03854 9.75 8.5 9.75ZM15.5 10H8.5C7.5 10 7 9.5 7 8.5V7.5C7 6.5 7.5 6 8.5 6H15.5C16.5 6 17 6.5 17 7.5V8.5C17 9.5 16.5 10 15.5 10Z" fill="white"/>
<path fill-rule="evenodd" clip-rule="evenodd" d="M17 14C17 13.4477 16.5523 13 16 13C15.4477 13 15 13.4477 15 14C15 14.5523 15.4477 15 16 15C16.5523 15 17 14.5523 17 14ZM8 16C8.55228 16 9 16.4477 9 17C9 17.5523 8.55228 18 8 18C7.44772 18 7 17.5523 7 17C7 16.4477 7.44772 16 8 16ZM13 17C13 16.4477 12.5523 16 12 16C11.4477 16 11 16.4477 11 17C11 17.5523 11.4477 18 12 18C12.5523 18 13 17.5523 13 17ZM17 17C17 16.4477 16.5523 16 16 16C15.4477 16 15 16.4477 15 17C15 17.5523 15.4477 18 16 18C16.5523 18 17 17.5523 17 17ZM12 13C12.5523 13 13 13.4477 13 14C13 14.5523 12.5523 15 12 15C11.4477 15 11 14.5523 11 14C11 13.4477 11.4477 13 12 13ZM9 14C9 13.4477 8.55228 13 8 13C7.44772 13 7 13.4477 7 14C7 14.5523 7.44772 15 8 15C8.55228 15 9 14.5523 9 14Z" fill="url(#paint5_linear_2298_110424)"/>
<path fill-rule="evenodd" clip-rule="evenodd" d="M16.75 14C16.75 13.5858 16.4142 13.25 16 13.25C15.5858 13.25 15.25 13.5858 15.25 14C15.25 14.4142 15.5858 14.75 16 14.75C16.4142 14.75 16.75 14.4142 16.75 14ZM8.75 17C8.75 16.5858 8.41421 16.25 8 16.25C7.58579 16.25 7.25 16.5858 7.25 17C7.25 17.4142 7.58579 17.75 8 17.75C8.41421 17.75 8.75 17.4142 8.75 17ZM12.75 17C12.75 16.5858 12.4142 16.25 12 16.25C11.5858 16.25 11.25 16.5858 11.25 17C11.25 17.4142 11.5858 17.75 12 17.75C12.4142 17.75 12.75 17.4142 12.75 17ZM16.75 17C16.75 16.5858 16.4142 16.25 16 16.25C15.5858 16.25 15.25 16.5858 15.25 17C15.25 17.4142 15.5858 17.75 16 17.75C16.4142 17.75 16.75 17.4142 16.75 17ZM12.75 14C12.75 13.5858 12.4142 13.25 12 13.25C11.5858 13.25 11.25 13.5858 11.25 14C11.25 14.4142 11.5858 14.75 12 14.75C12.4142 14.75 12.75 14.4142 12.75 14ZM8.75 14C8.75 13.5858 8.41421 13.25 8 13.25C7.58579 13.25 7.25 13.5858 7.25 14C7.25 14.4142 7.58579 14.75 8 14.75C8.41421 14.75 8.75 14.4142 8.75 14ZM16 13C16.5523 13 17 13.4477 17 14C17 14.5523 16.5523 15 16 15C15.4477 15 15 14.5523 15 14C15 13.4477 15.4477 13 16 13ZM9 17C9 16.4477 8.55228 16 8 16C7.44772 16 7 16.4477 7 17C7 17.5523 7.44772 18 8 18C8.55228 18 9 17.5523 9 17ZM12 16C12.5523 16 13 16.4477 13 17C13 17.5523 12.5523 18 12 18C11.4477 18 11 17.5523 11 17C11 16.4477 11.4477 16 12 16ZM16 16C16.5523 16 17 16.4477 17 17C17 17.5523 16.5523 18 16 18C15.4477 18 15 17.5523 15 17C15 16.4477 15.4477 16 16 16ZM13 14C13 13.4477 12.5523 13 12 13C11.4477 13 11 13.4477 11 14C11 14.5523 11.4477 15 12 15C12.5523 15 13 14.5523 13 14ZM8 13C8.55228 13 9 13.4477 9 14C9 14.5523 8.55228 15 8 15C7.44772 15 7 14.5523 7 14C7 13.4477 7.44772 13 8 13Z" fill="white"/>
<defs>
<linearGradient id="paint0_linear_2298_110424" x1="12" y1="0" x2="12" y2="24" gradientUnits="userSpaceOnUse">
<stop stop-color="#1E7ADE"/>
<stop offset="1" stop-color="#8451F0"/>
</linearGradient>
<linearGradient id="paint1_linear_2298_110424" x1="12" y1="0" x2="12" y2="24" gradientUnits="userSpaceOnUse">
<stop offset="0.4" stop-color="#ECECEC"/>
<stop offset="1" stop-color="#B8BCBF"/>
</linearGradient>
<radialGradient id="paint2_radial_2298_110424" cx="0" cy="0" r="1" gradientUnits="userSpaceOnUse" gradientTransform="translate(12 12) rotate(90) scale(12)">
<stop offset="0.39" stop-color="#E1E1E1"/>
<stop offset="1" stop-color="white" stop-opacity="0"/>
</radialGradient>
<linearGradient id="paint3_linear_2298_110424" x1="12" y1="4" x2="12" y2="20" gradientUnits="userSpaceOnUse">
<stop stop-color="#5A8DD9"/>
<stop offset="1" stop-color="#142B80"/>
</linearGradient>
<linearGradient id="paint4_linear_2298_110424" x1="7.71429" y1="6.28571" x2="8.39618" y2="10.6187" gradientUnits="userSpaceOnUse">
<stop stop-color="white"/>
<stop offset="1" stop-color="#ECECEC" stop-opacity="0.5"/>
</linearGradient>
<linearGradient id="paint5_linear_2298_110424" x1="7.14286" y1="14.8571" x2="7.89925" y2="12.9346" gradientUnits="userSpaceOnUse">
<stop stop-color="white"/>
<stop offset="1" stop-color="#ECECEC" stop-opacity="0.5"/>
</linearGradient>
<clipPath id="clip0_2298_110424">
<rect width="24" height="24" fill="white"/>
</clipPath>
</defs>
</svg>
