<svg
    xmlns="http://www.w3.org/2000/svg"
    viewBox="0 0 16 16"
    width="24"
    height="24"
    fill="currentColor"
  >
    <path
      opacity="0.4"
      d="M4.6665 14H11.3332C12.6665 14 13.3332 13.3333 13.3332 12V4C13.3332 2.66667 12.6665 2 11.3332 2H4.6665C3.33317 2 2.6665 2.66667 2.6665 4V12C2.6665 13.3333 3.33317 14 4.6665 14Z"
    />
    <path
      d="M5.6665 6.66667H10.3332C10.9998 6.66667 11.3332 6.33333 11.3332 5.66667V5C11.3332 4.33333 10.9998 4 10.3332 4H5.6665C4.99984 4 4.6665 4.33333 4.6665 5V5.66667C4.6665 6.33333 4.99984 6.66667 5.6665 6.66667Z"
    />
    <path
      d="M10.6667 10C11.0349 10 11.3333 9.70154 11.3333 9.33335C11.3333 8.96516 11.0349 8.66669 10.6667 8.66669C10.2985 8.66669 10 8.96516 10 9.33335C10 9.70154 10.2985 10 10.6667 10Z"
    />
    <path
      d="M8.00016 10C8.36835 10 8.66683 9.70154 8.66683 9.33335C8.66683 8.96516 8.36835 8.66669 8.00016 8.66669C7.63197 8.66669 7.3335 8.96516 7.3335 9.33335C7.3335 9.70154 7.63197 10 8.00016 10Z"
    />
    <path
      d="M5.33317 10C5.70136 10 5.99984 9.70154 5.99984 9.33335C5.99984 8.96516 5.70136 8.66669 5.33317 8.66669C4.96498 8.66669 4.6665 8.96516 4.6665 9.33335C4.6665 9.70154 4.96498 10 5.33317 10Z"

    />
    <path
      d="M10.6667 12C11.0349 12 11.3333 11.7015 11.3333 11.3334C11.3333 10.9652 11.0349 10.6667 10.6667 10.6667C10.2985 10.6667 10 10.9652 10 11.3334C10 11.7015 10.2985 12 10.6667 12Z"

    />
    <path
      d="M8.00016 12C8.36835 12 8.66683 11.7015 8.66683 11.3334C8.66683 10.9652 8.36835 10.6667 8.00016 10.6667C7.63197 10.6667 7.3335 10.9652 7.3335 11.3334C7.3335 11.7015 7.63197 12 8.00016 12Z"

    />
    <path
      d="M5.33317 12C5.70136 12 5.99984 11.7015 5.99984 11.3334C5.99984 10.9652 5.70136 10.6667 5.33317 10.6667C4.96498 10.6667 4.6665 10.9652 4.6665 11.3334C4.6665 11.7015 4.96498 12 5.33317 12Z"  
    />
  </svg>