<svg width="24" height="24" viewBox="0 0 24 24" fill="none" xmlns="http://www.w3.org/2000/svg">
<!-- <g clip-path="url(#clip0_2298_110336)"> -->
<mask id="mask0_2298_110336" style="mask-type:alpha" maskUnits="userSpaceOnUse" x="0" y="0" width="24" height="24">
<rect width="24" height="24" rx="8" fill="url(#paint0_linear_2298_110336)"/>
</mask>
<!-- <g mask="url(#mask0_2298_110336)"> -->
<rect width="24" height="24" rx="8" fill="url(#paint1_linear_2298_110336)"/>
<rect width="24" height="24" rx="8" fill="url(#paint2_linear_2298_110336)"/>
<rect width="24" height="24" rx="8" fill="url(#paint3_linear_2298_110336)"/>
<path fill-rule="evenodd" clip-rule="evenodd" d="M12 14C12.7403 14 13.3866 13.5978 13.7324 13H15C15.3701 13 15.6933 12.7989 15.8662 12.5C15.9513 12.6471 16 12.8179 16 13C16 13.5523 15.5523 14 15 14H13.7324C13.3866 14.5978 12.7403 15 12 15C10.8954 15 10 14.1046 10 13C10 12.8273 10.0219 12.6598 10.063 12.5C10.285 13.3626 11.0681 14 12 14Z" fill="#414141"/>
<path d="M3.13221 12.5659C3.07992 13.5123 3.17606 14.4671 3.423 15.3946C3.5833 15.9967 4.2 16.3535 4.80045 16.1916C5.40089 16.0297 5.75771 15.4104 5.59741 14.8083C5.57563 14.7265 5.55541 14.6444 5.53676 14.562C5.40274 14.8612 5.14071 15.0999 4.80045 15.1916C4.2 15.3535 3.5833 14.9967 3.423 14.3946C3.2629 13.7933 3.16618 13.1805 3.13221 12.5659Z" fill="#414141"/>
<path d="M5.38739 12.5617C5.44026 11.8449 5.60684 11.1361 5.8853 10.4629C6.45534 9.08487 7.46238 7.93317 8.75021 7.18646C10.0381 6.43976 11.5347 6.13977 13.0081 6.33302C14.4815 6.52628 15.8492 7.20198 16.8992 8.25533C17.9492 9.30868 18.6227 10.6808 18.8154 12.1589C18.8318 12.2847 18.8446 12.4107 18.8539 12.5367C18.8876 12.0799 18.8752 11.6183 18.8154 11.1589C18.6227 9.68081 17.9492 8.30868 16.8992 7.25533C15.8492 6.20198 14.4815 5.52628 13.0081 5.33302C11.5347 5.13977 10.0381 5.43976 8.75021 6.18646C7.46238 6.93317 6.45534 8.08487 5.8853 9.46293C5.47767 10.4484 5.30979 11.5102 5.38739 12.5617Z" fill="#414141"/>
<path d="M7.48967 19.5809L7.13479 19.7017C6.98261 19.7534 6.93162 19.9437 7.03752 20.0647L9.2131 22.5487C9.33163 22.6841 9.55293 22.632 9.59962 22.4578L9.78265 21.7747C11.6963 22.2875 13.7264 22.1521 15.5579 21.3896C17.3895 20.6271 18.9202 19.2801 19.9126 17.5575C20.7927 16.03 21.2058 14.2829 21.1091 12.5326C21.0312 13.9416 20.6248 15.3215 19.9126 16.5575C18.9202 18.2801 17.3895 19.6271 15.5579 20.3896C13.7264 21.1521 11.6963 21.2875 9.78265 20.7747L9.59962 21.4578C9.55293 21.632 9.33163 21.6841 9.2131 21.5487L7.48967 19.5809Z" fill="#414141"/>
<path d="M13.3038 3.09437C15.2683 3.35205 17.0919 4.25298 18.4919 5.65745C19.8919 7.06191 20.7899 8.89142 21.0468 10.8622C21.3036 12.833 20.9049 14.835 19.9125 16.5576C18.92 18.2802 17.3893 19.6272 15.5578 20.3897C13.7262 21.1522 11.6962 21.2875 9.78249 20.7748L9.59946 21.4578C9.55278 21.6321 9.33147 21.6842 9.21294 21.5488L7.03736 19.0647C6.93146 18.9438 6.98245 18.7535 7.13463 18.7017L10.2608 17.6382C10.4311 17.5803 10.5967 17.7361 10.55 17.9103L10.367 18.5934C11.8023 18.978 13.3248 18.8765 14.6985 18.3046C16.0721 17.7327 17.2201 16.7225 17.9645 15.4305C18.7088 14.1385 19.0078 12.6371 18.8152 11.159C18.6226 9.68088 17.949 8.30875 16.899 7.2554C15.8491 6.20205 14.4813 5.52635 13.0079 5.3331C11.5346 5.13984 10.0379 5.43983 8.75006 6.18654C7.46222 6.93325 6.45518 8.08494 5.88514 9.46301C5.3151 10.8411 5.21391 12.3685 5.59725 13.8084C5.75755 14.4104 5.40073 15.0298 4.80029 15.1917C4.19984 15.3536 3.58314 14.9968 3.42285 14.3947C2.91172 12.4749 3.04664 10.4383 3.8067 8.60092C4.56675 6.7635 5.90946 5.22791 7.62658 4.2323C9.3437 3.23668 11.3393 2.8367 13.3038 3.09437Z" fill="url(#paint4_linear_2298_110336)"/>
<path fill-rule="evenodd" clip-rule="evenodd" d="M9.60571 20.4686L9.8472 20.5333C11.7075 21.0318 13.681 20.9002 15.4617 20.1589C17.2424 19.4176 18.7308 18.1079 19.6959 16.4328C20.6609 14.7577 21.0486 12.8109 20.7989 10.8945C20.5491 8.97814 19.6759 7.19936 18.3148 5.83394C16.9538 4.46854 15.181 3.59274 13.2712 3.34225C11.3615 3.09176 9.42148 3.48057 7.75198 4.44857C6.08246 5.41658 4.77682 6.90971 4.03771 8.69648C3.29861 10.4833 3.16743 12.4636 3.66443 14.3304C3.78923 14.7992 4.26878 15.0761 4.7352 14.9503C5.20222 14.8244 5.48063 14.342 5.35567 13.8727C4.9582 12.3797 5.06314 10.7962 5.65413 9.36744C6.24512 7.93873 7.28922 6.74457 8.62466 5.97026C9.96011 5.19595 11.5123 4.88478 13.0405 5.08522C14.5686 5.28566 15.9872 5.98649 17.0761 7.07891C18.165 8.17131 18.8634 9.59416 19.0631 11.1267C19.2628 12.6592 18.9528 14.2158 18.1811 15.5553C17.4094 16.8948 16.2191 17.9424 14.7945 18.5354C13.37 19.1284 11.7909 19.2338 10.3023 18.8349L10.0608 18.7702L10.2966 17.8901L7.24897 18.9269L9.36991 21.3486L9.60571 20.4686ZM10.3413 17.8749C10.3413 17.8749 10.3413 17.8749 10.3413 17.8749ZM9.78249 20.7748C11.6962 21.2875 13.7262 21.1522 15.5578 20.3897C17.3893 19.6272 18.92 18.2802 19.9125 16.5576C20.9049 14.835 21.3036 12.833 21.0468 10.8622C20.7899 8.89142 19.8919 7.06191 18.4919 5.65745C17.0919 4.25298 15.2683 3.35205 13.3038 3.09437C11.3393 2.8367 9.3437 3.23668 7.62658 4.2323C5.90946 5.22791 4.56675 6.7635 3.8067 8.60092C3.04664 10.4383 2.91172 12.4749 3.42285 14.3947C3.58314 14.9968 4.19984 15.3536 4.80029 15.1917C5.40073 15.0298 5.75755 14.4104 5.59725 13.8084C5.21391 12.3685 5.3151 10.8411 5.88514 9.46301C6.45518 8.08494 7.46222 6.93325 8.75006 6.18654C10.0379 5.43983 11.5346 5.13984 13.0079 5.3331C14.4813 5.52635 15.8491 6.20205 16.899 7.2554C17.949 8.30875 18.6226 9.68088 18.8152 11.159C19.0078 12.6371 18.7088 14.1385 17.9645 15.4305C17.2201 16.7225 16.0721 17.7327 14.6985 18.3046C13.402 18.8443 11.9729 18.9651 10.6097 18.6536C10.5285 18.6351 10.4476 18.615 10.367 18.5934L10.55 17.9103C10.5967 17.7361 10.4311 17.5803 10.2608 17.6382L7.13463 18.7017C6.98245 18.7535 6.93146 18.9438 7.03736 19.0647L9.21294 21.5488C9.33147 21.6841 9.55278 21.6321 9.59946 21.4578L9.78249 20.7748Z" fill="white"/>
<path d="M11 7C11 6.44772 11.4477 6 12 6V6C12.5523 6 13 6.44772 13 7V12C13 12.5523 12.5523 13 12 13V13C11.4477 13 11 12.5523 11 12V7Z" fill="url(#paint5_linear_2298_110336)"/>
<path fill-rule="evenodd" clip-rule="evenodd" d="M12.75 12V7C12.75 6.58579 12.4142 6.25 12 6.25C11.5858 6.25 11.25 6.58579 11.25 7V12C11.25 12.4142 11.5858 12.75 12 12.75C12.4142 12.75 12.75 12.4142 12.75 12ZM12 6C11.4477 6 11 6.44772 11 7V12C11 12.5523 11.4477 13 12 13C12.5523 13 13 12.5523 13 12V7C13 6.44772 12.5523 6 12 6Z" fill="white"/>
<path d="M15 11C15.5523 11 16 11.4477 16 12V12C16 12.5523 15.5523 13 15 13L12 13C11.4477 13 11 12.5523 11 12V12C11 11.4477 11.4477 11 12 11L15 11Z" fill="url(#paint6_linear_2298_110336)"/>
<path fill-rule="evenodd" clip-rule="evenodd" d="M12 12.75L15 12.75C15.4142 12.75 15.75 12.4142 15.75 12C15.75 11.5858 15.4142 11.25 15 11.25L12 11.25C11.5858 11.25 11.25 11.5858 11.25 12C11.25 12.4142 11.5858 12.75 12 12.75ZM16 12C16 11.4477 15.5523 11 15 11L12 11C11.4477 11 11 11.4477 11 12C11 12.5523 11.4477 13 12 13L15 13C15.5523 13 16 12.5523 16 12Z" fill="white"/>
<circle cx="12" cy="12" r="2" fill="white"/>
<!-- </g> -->
<!-- </g> -->
<defs>
<linearGradient id="paint0_linear_2298_110336" x1="12" y1="0" x2="12" y2="24" gradientUnits="userSpaceOnUse">
<stop stop-color="#1E7ADE"/>
<stop offset="1" stop-color="#8451F0"/>
</linearGradient>
<linearGradient id="paint1_linear_2298_110336" x1="12" y1="0" x2="12" y2="24" gradientUnits="userSpaceOnUse">
<stop stop-color="#FF8383"/>
<stop offset="1" stop-color="#D71D1D"/>
</linearGradient>
<linearGradient id="paint2_linear_2298_110336" x1="12" y1="0" x2="12" y2="24" gradientUnits="userSpaceOnUse">
<stop stop-color="#FFEE53"/>
<stop offset="1" stop-color="#E39600"/>
</linearGradient>
<linearGradient id="paint3_linear_2298_110336" x1="12" y1="0" x2="12" y2="24" gradientUnits="userSpaceOnUse">
<stop offset="0.4" stop-color="#BABABA"/>
<stop offset="1" stop-color="#5E5E5E"/>
</linearGradient>
<linearGradient id="paint4_linear_2298_110336" x1="5.09582" y1="-0.598674" x2="17.2122" y2="22.0309" gradientUnits="userSpaceOnUse">
<stop offset="0.17" stop-color="white" stop-opacity="0.8"/>
<stop offset="1" stop-color="#ECECEC" stop-opacity="0.3"/>
</linearGradient>
<linearGradient id="paint5_linear_2298_110336" x1="10.8824" y1="5.4969" x2="14.6608" y2="6.71185" gradientUnits="userSpaceOnUse">
<stop offset="0.17" stop-color="white" stop-opacity="0.8"/>
<stop offset="1" stop-color="#ECECEC" stop-opacity="0.3"/>
</linearGradient>
<linearGradient id="paint6_linear_2298_110336" x1="16.3594" y1="10.8824" x2="14.7988" y2="14.349" gradientUnits="userSpaceOnUse">
<stop offset="0.17" stop-color="white" stop-opacity="0.8"/>
<stop offset="1" stop-color="#ECECEC" stop-opacity="0.3"/>
</linearGradient>
<clipPath id="clip0_2298_110336">
<rect width="24" height="24" fill="white"/>
</clipPath>
</defs>
</svg>
