<svg
  xmlns="http://www.w3.org/2000/svg"
  width="90"
  height="90"
  fill="currentColor"
  viewBox="0 0 138 138"
>
  <g clip-path="url(#clip0_1401_117702)">
    <path
      fill="#5F6D7E"
      fill-rule="evenodd"
      d="M82.678 43.294a1.06 1.06 0 01-1.078 1.078h-8.061a1.06 1.06 0 01-1.078-1.078 1.09 1.09 0 011.078-1.078h8.06c.61 0 1.079.516 1.079 1.078zM67.021 43.294a1.09 1.09 0 01-1.078 1.078h-7.498v17.247c0 .609-.469 1.078-1.031 1.078a1.06 1.06 0 01-1.078-1.078V43.294a1.09 1.09 0 011.078-1.078h8.53c.562 0 1.077.516 1.077 1.078zM52.772 69.492c0 .562-.469 1.03-1.078 1.03h-5.108c-.61 0-1.078-.468-1.078-1.03 0-.61.468-1.078 1.078-1.078h5.108c.61 0 1.078.469 1.078 1.078zM40.03 69.492a1.04 1.04 0 01-1.031 1.03h-6.374a1.04 1.04 0 01-1.031-1.03c0-.61.468-1.078 1.03-1.078H39c.562 0 1.03.469 1.03 1.078zM100.201 43.294v25.981c0 .563-.469 1.031-1.078 1.031-.562 0-1.078-.468-1.078-1.03V44.371h-7.451a1.06 1.06 0 01-1.078-1.078 1.09 1.09 0 011.078-1.078h8.53c.608 0 1.077.516 1.077 1.078zM67.021 94.706a1.09 1.09 0 01-1.078 1.078h-8.53a1.06 1.06 0 01-1.077-1.078V77.319a1.09 1.09 0 011.078-1.078c.562 0 1.03.515 1.03 1.078v16.309h7.5c.562 0 1.077.516 1.077 1.078zM82.678 94.706a1.06 1.06 0 01-1.078 1.078h-8.061a1.06 1.06 0 01-1.078-1.078 1.09 1.09 0 011.078-1.078h8.06c.61 0 1.079.516 1.079 1.078z"
      clip-rule="evenodd"
    ></path>
    <path
      fill="#5F6D7E"
      fill-rule="evenodd"
      d="M100.201 68.772v25.934a1.06 1.06 0 01-1.078 1.078h-8.53a1.06 1.06 0 01-1.077-1.078 1.09 1.09 0 011.078-1.078h7.451V68.772c0-.61.516-1.078 1.078-1.078.61 0 1.078.468 1.078 1.078z"
      clip-rule="evenodd"
    ></path>
    <circle
      cx="29"
      cy="69.5"
      r="5"
      fill="#FFB4B4"
      transform="rotate(-90 29 69.5)"
    ></circle>
    <path
      fill="#2E3646"
      fill-rule="evenodd"
      d="M47.623 60.213v18.559c0 .562-.469 1.078-1.03 1.078H39a1.09 1.09 0 01-1.078-1.078v-18.56c0-.609.469-1.077 1.078-1.077h7.545c.61 0 1.078.468 1.078 1.078z"
      clip-rule="evenodd"
    ></path>
    <path
      fill="#DDCD93"
      fill-rule="evenodd"
      d="M64.161 69.492c0 .188-.093.422-.234.61l-5.67 7.826a1.047 1.047 0 01-.844.469c-.375 0-.703-.188-.89-.47l-5.672-7.826a1.054 1.054 0 010-1.265l5.671-7.827c.188-.28.516-.421.89-.421.329 0 .657.14.844.421l5.671 7.827c.14.187.234.422.234.656z"
      clip-rule="evenodd"
    ></path>
    <path
      fill="#2E3646"
      fill-rule="evenodd"
      d="M74.568 31.203v24.23a1.04 1.04 0 01-1.03 1.03h-7.593c-.61 0-1.078-.468-1.078-1.03v-24.23c0-.61.469-1.078 1.078-1.078h7.592c.563 0 1.031.468 1.031 1.078z"
      clip-rule="evenodd"
    ></path>
    <path
      fill="#DDCD93"
      fill-rule="evenodd"
      d="M91.627 43.294c0 .188-.047.375-.094.516l-4.5 8.107c-.187.328-.561.516-.936.516s-.75-.188-.938-.516L80.66 43.81a1.313 1.313 0 010-1.031l4.5-8.061c.187-.328.562-.563.937-.563s.75.235.937.563l4.499 8.06c.047.188.094.329.094.516z"
      clip-rule="evenodd"
    ></path>
    <path
      fill="#2E3646"
      fill-rule="evenodd"
      d="M74.568 82.615v24.229a1.04 1.04 0 01-1.03 1.031h-7.593c-.61 0-1.078-.468-1.078-1.031v-24.23c0-.609.469-1.077 1.078-1.077h7.592c.563 0 1.031.468 1.031 1.078z"
      clip-rule="evenodd"
    ></path>
    <path
      fill="#DDCD93"
      fill-rule="evenodd"
      d="M91.627 94.706c0 .187-.047.375-.094.515l-4.5 8.108c-.187.328-.561.516-.936.516s-.75-.188-.938-.516l-4.499-8.108a1.313 1.313 0 010-1.03l4.5-8.062c.187-.328.562-.562.937-.562s.75.234.937.562l4.499 8.061c.047.188.094.328.094.516z"
      clip-rule="evenodd"
    ></path>
    <circle
      cx="109"
      cy="69"
      r="5"
      fill="#ABDCB9"
      transform="rotate(-90 109 69)"
    ></circle>
    <path
      fill="#5F6D7E"
      fill-rule="evenodd"
      d="M105.772 69.492c0 .562-.469 1.03-1.078 1.03h-5.108c-.61 0-1.078-.468-1.078-1.03 0-.61.469-1.078 1.078-1.078h5.108a1.06 1.06 0 011.078 1.078z"
      clip-rule="evenodd"
    ></path>
  </g>
  <defs>
    <clipPath id="clip0_1401_117702">
      <path
        fill="#fff"
        d="M0 0H80V90H0z"
        transform="rotate(-90 66.5 42.5)"
      ></path>
    </clipPath>
  </defs>
</svg>
