<svg width="28" height="28" viewBox="0 0 28 28" fill="none" xmlns="http://www.w3.org/2000/svg">
<rect width="28" height="28" rx="14" fill="#F8F8FA"/>
<rect x="0.5" y="0.5" width="27" height="27" rx="13.5" stroke="black" stroke-opacity="0.3"/>
<path d="M13.1667 19.0001C12.9684 19.0001 12.7301 18.9109 12.5734 18.7518L9.24006 15.3668C8.91673 15.0384 8.9209 14.5109 9.24923 14.1884C9.57673 13.8659 10.1042 13.8693 10.4276 14.1976L13.1717 16.9843L20.9117 9.24511C21.2376 8.91927 21.7642 8.91927 22.0901 9.24511C22.4159 9.57011 22.4159 10.0984 22.0901 10.4234L13.7567 18.7568C13.6001 18.9126 13.3876 19.0001 13.1667 19.0001Z" fill="black" fill-opacity="0.56"/>
<path opacity="0.4" d="M13.1666 15.6666C12.9532 15.6666 12.7399 15.585 12.5774 15.4225C12.2515 15.0975 12.2515 14.5691 12.5774 14.2441L17.5774 9.24413C17.9032 8.9183 18.4299 8.9183 18.7557 9.24413C19.0816 9.56913 19.0816 10.0975 18.7557 10.4225L13.7557 15.4225C13.5932 15.585 13.3799 15.6666 13.1666 15.6666Z" fill="black" fill-opacity="0.56"/>
<path opacity="0.4" d="M9.83324 19C9.61824 19 9.4024 18.9167 9.2399 18.7517L5.90656 15.3684C5.58323 15.04 5.5874 14.5125 5.91573 14.19C6.24323 13.8675 6.77073 13.8709 7.09407 14.1984L10.4274 17.5817C10.7507 17.91 10.7466 18.4375 10.4182 18.76C10.2557 18.92 10.0441 19 9.83324 19Z" fill="black" fill-opacity="0.56"/>
</svg>
