<svg
  width="22"
  height="22"
  viewBox="0 0 22 22"
  fill="currentColor"
  xmlns="http://www.w3.org/2000/svg"
>
  <path
    d="M11.0002 1.14583C5.56616 1.14583 1.146 5.56691 1.146 11C1.146 16.4331 5.56616 20.8542 11.0002 20.8542C16.4342 20.8542 20.8543 16.4331 20.8543 11C20.8543 5.56691 16.4342 1.14583 11.0002 1.14583ZM11.0002 19.4792C6.32425 19.4792 2.521 15.6759 2.521 11C2.521 6.32408 6.32425 2.52083 11.0002 2.52083C15.6761 2.52083 19.4793 6.32408 19.4793 11C19.4793 15.6759 15.6761 19.4792 11.0002 19.4792ZM14.6943 8.37465C14.9629 8.64323 14.9629 9.07868 14.6943 9.34726L10.4163 13.6253C10.2824 13.7592 10.1064 13.827 9.93042 13.827C9.75442 13.827 9.57842 13.7601 9.44459 13.6253L7.306 11.4867C7.03741 11.2182 7.03741 10.7827 7.306 10.5141C7.57458 10.2456 8.01 10.2456 8.27858 10.5141L9.93134 12.1669L13.7227 8.3756C13.9912 8.10702 14.4257 8.10698 14.6943 8.37465Z"
  />
</svg>
