<svg width="28" height="28" viewBox="0 0 28 28" fill="none" xmlns="http://www.w3.org/2000/svg">
<rect x="0.5" y="0.5" width="27" height="27" rx="13.5" fill="#E8F5E9"/>
<rect x="0.5" y="0.5" width="27" height="27" rx="13.5" stroke="#A5D6A7"/>
<path d="M11.5 18.9999C11.4991 18.9999 11.4983 18.9999 11.4966 18.9999C11.2741 18.999 11.0625 18.9099 10.9066 18.7515L7.57331 15.3665C7.24998 15.0382 7.25415 14.5107 7.58248 14.1882C7.91081 13.8657 8.43748 13.869 8.76081 14.1974L11.505 16.984L19.245 9.24486C19.5708 8.91903 20.0975 8.91903 20.4233 9.24486C20.7491 9.56986 20.7491 10.0982 20.4233 10.4232L12.09 18.7565C11.9333 18.9124 11.7208 18.9999 11.5 18.9999Z" fill="#1B5E20"/>
</svg>
