<svg width="24" height="24" viewBox="0 0 24 24" fill="currentColor" xmlns="http://www.w3.org/2000/svg">
<g id="times-duotone">
<path id="Union" d="M5.29325 18.7069C5.48825 18.9019 5.74425 19 6.00025 19C6.25625 19 6.51225 18.9019 6.70725 18.7069L12.0003 13.4139L17.2933 18.7069C17.4883 18.9019 17.7443 19 18.0003 19C18.2563 19 18.5123 18.9019 18.7073 18.7069C19.0983 18.3169 19.0983 17.683 18.7073 17.293L13.4142 12L18.7073 6.70695C19.0983 6.31695 19.0983 5.68301 18.7073 5.29301C18.3163 4.90201 17.6842 4.90201 17.2933 5.29301L12.0003 10.586L6.70725 5.29301C6.31625 4.90201 5.68425 4.90201 5.29325 5.29301C4.90225 5.68301 4.90225 6.31695 5.29325 6.70695L10.5863 12L5.29325 17.293C4.90225 17.683 4.90225 18.3169 5.29325 18.7069Z" />
</g>
</svg>
