<svg width="24" height="24" viewBox="0 0 24 24" fill="none" xmlns="http://www.w3.org/2000/svg">
<g clip-path="url(#clip0_1888_115712)">
<rect width="24" height="24" rx="8" fill="url(#paint0_linear_1888_115712)"/>
<rect width="24" height="24" rx="8" fill="url(#paint1_radial_1888_115712)" fill-opacity="0.2" style="mix-blend-mode:hard-light"/>
<g filter="url(#filter0_d_1888_115712)">
<path d="M17.5 19V16H7C5.4 16 5 17 5 17.5C5 18.3284 5.67157 19 6.5 19H17.5Z" fill="url(#paint2_linear_1888_115712)" shape-rendering="crispEdges"/>
<path d="M7 16H17.5C18.3284 16 19 15.3284 19 14.5V4.68421C19 3.75405 18.246 3 17.3158 3H6.68421C5.75405 3 5 3.75405 5 4.68421V17.5C5 17 5.4 16 7 16Z" fill="url(#paint3_linear_1888_115712)" shape-rendering="crispEdges"/>
<path d="M19 19H17.5M17.5 19V16M17.5 19H6.5M17.5 16V16C18.3284 16 19 15.3284 19 14.5V14.5M17.5 16H7C5.4 16 5 17 5 17.5M17.5 16C18.3284 16 19 15.3284 19 14.5M5 17.5V17.5C5 18.3284 5.67157 19 6.5 19V19M5 17.5C5 18.3284 5.67157 19 6.5 19M5 17.5V4.68421M6.68421 3H17.3158M6.68421 3C5.75405 3 5 3.75405 5 4.68421M6.68421 3V3C5.75405 3 5 3.75405 5 4.68421V4.68421M17.3158 3C18.246 3 19 3.75405 19 4.68421M17.3158 3V3C18.246 3 19 3.75405 19 4.68421V4.68421M19 4.68421V14.5" stroke="#999999" stroke-linecap="round" shape-rendering="crispEdges"/>
</g>
<path d="M7 16H17.5C18.3284 16 19 15.3284 19 14.5V4.68421C19 3.75405 18.246 3 17.3158 3H6.68421C5.75405 3 5 3.75405 5 4.68421V17.5C5 17 5.4 16 7 16Z" fill="#D9D9D9"/>
<path d="M7 16H17.5C18.3284 16 19 15.3284 19 14.5V4.68421C19 3.75405 18.246 3 17.3158 3H6.68421C5.75405 3 5 3.75405 5 4.68421V17.5C5 17 5.4 16 7 16Z" fill="url(#paint4_linear_1888_115712)"/>
<path fill-rule="evenodd" clip-rule="evenodd" d="M6.68421 3.5C6.03019 3.5 5.5 4.03019 5.5 4.68421V15.8563C5.88243 15.6346 6.37792 15.5 7 15.5H17.5C18.0523 15.5 18.5 15.0523 18.5 14.5V4.68421C18.5 4.03019 17.9698 3.5 17.3158 3.5H6.68421ZM6.68421 2.5H17.3158C18.5221 2.5 19.5 3.4779 19.5 4.68421V14.5C19.5 15.4319 18.8626 16.215 18 16.437V18.5H19C19.2761 18.5 19.5 18.7239 19.5 19C19.5 19.2761 19.2761 19.5 19 19.5H6.5C5.39543 19.5 4.5 18.6046 4.5 17.5V4.68421C4.5 3.4779 5.4779 2.5 6.68421 2.5ZM6.5 18.5H17V16.5H7C6.31074 16.5 5.95015 16.7114 5.76069 16.9088C5.55909 17.1188 5.5 17.3655 5.5 17.5C5.5 18.0523 5.94772 18.5 6.5 18.5Z" fill="#124B7C"/>
<g filter="url(#filter1_d_1888_115712)">
<path d="M7 17H11V22L9 20.125L7 22V17Z" fill="#D9D9D9"/>
<path d="M7 17H11V22L9 20.125L7 22V17Z" fill="url(#paint5_linear_1888_115712)"/>
<path d="M7 17H11V22L9 20.125L7 22V17Z" fill="url(#paint6_linear_1888_115712)"/>
</g>
<path d="M13.5018 11.0866C13.9909 10.5469 14.2877 9.83794 14.2877 9.06151C14.2877 7.37068 12.8802 6 11.1439 6C9.40755 6 8 7.37068 8 9.06151C8 10.7523 9.40755 12.123 11.1439 12.123C12.0828 12.123 12.9257 11.7221 13.5018 11.0866ZM13.5018 11.0866L16 13" stroke="white" stroke-linecap="round"/>
</g>
<defs>
<filter id="filter0_d_1888_115712" x="4.5" y="2.5" width="15" height="18" filterUnits="userSpaceOnUse" color-interpolation-filters="sRGB">
<feFlood flood-opacity="0" result="BackgroundImageFix"/>
<feColorMatrix in="SourceAlpha" type="matrix" values="0 0 0 0 0 0 0 0 0 0 0 0 0 0 0 0 0 0 127 0" result="hardAlpha"/>
<feOffset dy="1"/>
<feComposite in2="hardAlpha" operator="out"/>
<feColorMatrix type="matrix" values="0 0 0 0 0.223529 0 0 0 0 0.223529 0 0 0 0 0.223529 0 0 0 1 0"/>
<feBlend mode="normal" in2="BackgroundImageFix" result="effect1_dropShadow_1888_115712"/>
<feBlend mode="normal" in="SourceGraphic" in2="effect1_dropShadow_1888_115712" result="shape"/>
</filter>
<filter id="filter1_d_1888_115712" x="7" y="17" width="4" height="6" filterUnits="userSpaceOnUse" color-interpolation-filters="sRGB">
<feFlood flood-opacity="0" result="BackgroundImageFix"/>
<feColorMatrix in="SourceAlpha" type="matrix" values="0 0 0 0 0 0 0 0 0 0 0 0 0 0 0 0 0 0 127 0" result="hardAlpha"/>
<feOffset dy="1"/>
<feComposite in2="hardAlpha" operator="out"/>
<feColorMatrix type="matrix" values="0 0 0 0 0.223529 0 0 0 0 0.223529 0 0 0 0 0.223529 0 0 0 1 0"/>
<feBlend mode="normal" in2="BackgroundImageFix" result="effect1_dropShadow_1888_115712"/>
<feBlend mode="normal" in="SourceGraphic" in2="effect1_dropShadow_1888_115712" result="shape"/>
</filter>
<linearGradient id="paint0_linear_1888_115712" x1="12" y1="0" x2="12" y2="24" gradientUnits="userSpaceOnUse">
<stop offset="0.4" stop-color="#ECECEC"/>
<stop offset="1" stop-color="#B8BCBF"/>
</linearGradient>
<radialGradient id="paint1_radial_1888_115712" cx="0" cy="0" r="1" gradientUnits="userSpaceOnUse" gradientTransform="translate(12 12) rotate(90) scale(12)">
<stop offset="0.39" stop-color="#E1E1E1"/>
<stop offset="1" stop-color="white" stop-opacity="0"/>
</radialGradient>
<linearGradient id="paint2_linear_1888_115712" x1="4.17647" y1="-1.21628" x2="21.3652" y2="13.1427" gradientUnits="userSpaceOnUse">
<stop offset="0.17" stop-color="white"/>
<stop offset="1" stop-color="#ECECEC" stop-opacity="0.6"/>
</linearGradient>
<linearGradient id="paint3_linear_1888_115712" x1="4.17647" y1="-1.21628" x2="21.3652" y2="13.1427" gradientUnits="userSpaceOnUse">
<stop offset="0.17" stop-color="white"/>
<stop offset="1" stop-color="#ECECEC" stop-opacity="0.6"/>
</linearGradient>
<linearGradient id="paint4_linear_1888_115712" x1="12" y1="3" x2="12" y2="19" gradientUnits="userSpaceOnUse">
<stop stop-color="#39DFA3"/>
<stop offset="1" stop-color="#011478"/>
</linearGradient>
<linearGradient id="paint5_linear_1888_115712" x1="9" y1="17" x2="9" y2="22" gradientUnits="userSpaceOnUse">
<stop stop-color="#39DFA3"/>
<stop offset="1" stop-color="#011478"/>
</linearGradient>
<linearGradient id="paint6_linear_1888_115712" x1="9" y1="16.7059" x2="9" y2="22" gradientUnits="userSpaceOnUse">
<stop stop-color="#FF8383"/>
<stop offset="1" stop-color="#D71D1D"/>
</linearGradient>
<clipPath id="clip0_1888_115712">
<rect width="24" height="24" fill="white"/>
</clipPath>
</defs>
</svg>
