<svg width="24" height="24" viewBox="0 0 24 24" fill="none" xmlns="http://www.w3.org/2000/svg">
<!-- <g clip-path="url(#clip0_2298_110426)"> -->
<mask id="mask0_2298_110426" style="mask-type:alpha" maskUnits="userSpaceOnUse" x="0" y="0" width="24" height="24">
<rect width="24" height="24" rx="8" fill="url(#paint0_linear_2298_110426)"/>
</mask>
<!-- <g mask="url(#mask0_2298_110426)"> -->
<rect width="24" height="24" rx="8" fill="url(#paint1_linear_2298_110426)"/>
<rect width="24" height="24" rx="8" fill="url(#paint2_radial_2298_110426)" fill-opacity="0.2" style="mix-blend-mode:hard-light"/>
<!-- <g filter="url(#filter0_d_2298_110426)"> -->
<path fill-rule="evenodd" clip-rule="evenodd" d="M4 8.5C4 6.567 5.567 5 7.5 5H16.5C18.433 5 20 6.567 20 8.5V10.0256V10.8632H12H4V10.0256V8.5Z" fill="url(#paint3_linear_2298_110426)"/>
<path d="M4 15.0513V15.5C4 17.433 5.567 19 7.5 19H12M4 15.0513H12M4 15.0513V10.8632M20 15.0513V15.5C20 17.433 18.433 19 16.5 19H12M20 15.0513H12M20 15.0513V10.8632M12 15.0513V19M12 15.0513V10.8632M12 10.0256H20M12 10.0256H4M12 10.0256V10.8632M4 10.0256V8.5C4 6.567 5.567 5 7.5 5H16.5C18.433 5 20 6.567 20 8.5V10.0256M4 10.0256V10.8632M20 10.0256V10.8632M4 10.8632H12M20 10.8632H12" stroke="url(#paint4_linear_2298_110426)"/>
<!-- </g> -->
<path fill-rule="evenodd" clip-rule="evenodd" d="M20 10.8632V10.0256H12H4V10.8632H12H20Z" fill="url(#paint5_linear_2298_110426)"/>
<path fill-rule="evenodd" clip-rule="evenodd" d="M20 10.8632V10.0256H12H4V10.8632H12H20Z" fill="url(#paint6_linear_2298_110426)"/>
<path d="M4 15.0513H12V10.8632H4V15.0513Z" fill="url(#paint7_linear_2298_110426)"/>
<path d="M4 15.0513H12V10.8632H4V15.0513Z" fill="url(#paint8_linear_2298_110426)"/>
<path d="M12 15.0513H20V10.8632H12V15.0513Z" fill="url(#paint9_linear_2298_110426)"/>
<path d="M12 15.0513H20V10.8632H12V15.0513Z" fill="url(#paint10_linear_2298_110426)"/>
<path d="M16.5 19C18.433 19 20 17.433 20 15.5V15.0513H12V19H16.5Z" fill="url(#paint11_linear_2298_110426)"/>
<path d="M16.5 19C18.433 19 20 17.433 20 15.5V15.0513H12V19H16.5Z" fill="url(#paint12_linear_2298_110426)"/>
<path d="M4 15.0513V15.5C4 17.433 5.567 19 7.5 19H12V15.0513H4Z" fill="url(#paint13_linear_2298_110426)"/>
<path d="M4 15.0513V15.5C4 17.433 5.567 19 7.5 19H12V15.0513H4Z" fill="url(#paint14_linear_2298_110426)"/>
<path d="M4 15.0513V15.5C4 17.433 5.567 19 7.5 19H12M4 15.0513H12M4 15.0513V10.8632M20 15.0513V15.5C20 17.433 18.433 19 16.5 19H12M20 15.0513H12M20 15.0513V10.8632M12 15.0513V19M12 15.0513V10.8632M12 10.0256H20M12 10.0256H4M12 10.0256V10.8632M4 10.0256V8.5C4 6.567 5.567 5 7.5 5H16.5C18.433 5 20 6.567 20 8.5V10.0256M4 10.0256V10.8632M20 10.0256V10.8632M4 10.8632H12M20 10.8632H12" stroke="url(#paint15_linear_2298_110426)"/>
<rect x="5" y="7" width="8" height="2" rx="1" fill="#393939"/>
<!-- </g> -->
<!-- </g> -->
<defs>
<filter id="filter0_d_2298_110426" x="3.5" y="4.5" width="17" height="16" filterUnits="userSpaceOnUse" color-interpolation-filters="sRGB">
<feFlood flood-opacity="0" result="BackgroundImageFix"/>
<feColorMatrix in="SourceAlpha" type="matrix" values="0 0 0 0 0 0 0 0 0 0 0 0 0 0 0 0 0 0 127 0" result="hardAlpha"/>
<feOffset dy="1"/>
<feComposite in2="hardAlpha" operator="out"/>
<feColorMatrix type="matrix" values="0 0 0 0 0.223529 0 0 0 0 0.223529 0 0 0 0 0.223529 0 0 0 1 0"/>
<feBlend mode="normal" in2="BackgroundImageFix" result="effect1_dropShadow_2298_110426"/>
<feBlend mode="normal" in="SourceGraphic" in2="effect1_dropShadow_2298_110426" result="shape"/>
</filter>
<linearGradient id="paint0_linear_2298_110426" x1="12" y1="0" x2="12" y2="24" gradientUnits="userSpaceOnUse">
<stop stop-color="#1E7ADE"/>
<stop offset="1" stop-color="#8451F0"/>
</linearGradient>
<linearGradient id="paint1_linear_2298_110426" x1="12" y1="0" x2="12" y2="24" gradientUnits="userSpaceOnUse">
<stop offset="0.4" stop-color="#ECECEC"/>
<stop offset="1" stop-color="#B8BCBF"/>
</linearGradient>
<radialGradient id="paint2_radial_2298_110426" cx="0" cy="0" r="1" gradientUnits="userSpaceOnUse" gradientTransform="translate(12 12) rotate(90) scale(12)">
<stop offset="0.39" stop-color="#E1E1E1"/>
<stop offset="1" stop-color="white" stop-opacity="0"/>
</radialGradient>
<linearGradient id="paint3_linear_2298_110426" x1="12" y1="5" x2="12" y2="20.0769" gradientUnits="userSpaceOnUse">
<stop stop-color="#54D6A2"/>
<stop offset="1" stop-color="#0D5F42"/>
</linearGradient>
<linearGradient id="paint4_linear_2298_110426" x1="12" y1="5" x2="12" y2="20.0769" gradientUnits="userSpaceOnUse">
<stop stop-color="#54D6A2"/>
<stop offset="1" stop-color="#0D5F42"/>
</linearGradient>
<linearGradient id="paint5_linear_2298_110426" x1="12" y1="5" x2="12" y2="20.0769" gradientUnits="userSpaceOnUse">
<stop stop-color="#54D6A2"/>
<stop offset="1" stop-color="#0D5F42"/>
</linearGradient>
<linearGradient id="paint6_linear_2298_110426" x1="14.6667" y1="11.125" x2="16.5065" y2="18.5437" gradientUnits="userSpaceOnUse">
<stop stop-color="white"/>
<stop offset="1" stop-color="white" stop-opacity="0.5"/>
</linearGradient>
<linearGradient id="paint7_linear_2298_110426" x1="12" y1="5" x2="12" y2="20.0769" gradientUnits="userSpaceOnUse">
<stop stop-color="#54D6A2"/>
<stop offset="1" stop-color="#0D5F42"/>
</linearGradient>
<linearGradient id="paint8_linear_2298_110426" x1="14.6667" y1="11.125" x2="16.5065" y2="18.5437" gradientUnits="userSpaceOnUse">
<stop stop-color="white"/>
<stop offset="1" stop-color="white" stop-opacity="0.5"/>
</linearGradient>
<linearGradient id="paint9_linear_2298_110426" x1="12" y1="5" x2="12" y2="20.0769" gradientUnits="userSpaceOnUse">
<stop stop-color="#54D6A2"/>
<stop offset="1" stop-color="#0D5F42"/>
</linearGradient>
<linearGradient id="paint10_linear_2298_110426" x1="14.6667" y1="11.125" x2="16.5065" y2="18.5437" gradientUnits="userSpaceOnUse">
<stop stop-color="white"/>
<stop offset="1" stop-color="white" stop-opacity="0.5"/>
</linearGradient>
<linearGradient id="paint11_linear_2298_110426" x1="12" y1="5" x2="12" y2="20.0769" gradientUnits="userSpaceOnUse">
<stop stop-color="#54D6A2"/>
<stop offset="1" stop-color="#0D5F42"/>
</linearGradient>
<linearGradient id="paint12_linear_2298_110426" x1="14.6667" y1="11.125" x2="16.5065" y2="18.5437" gradientUnits="userSpaceOnUse">
<stop stop-color="white"/>
<stop offset="1" stop-color="white" stop-opacity="0.5"/>
</linearGradient>
<linearGradient id="paint13_linear_2298_110426" x1="12" y1="5" x2="12" y2="20.0769" gradientUnits="userSpaceOnUse">
<stop stop-color="#54D6A2"/>
<stop offset="1" stop-color="#0D5F42"/>
</linearGradient>
<linearGradient id="paint14_linear_2298_110426" x1="14.6667" y1="11.125" x2="16.5065" y2="18.5437" gradientUnits="userSpaceOnUse">
<stop stop-color="white"/>
<stop offset="1" stop-color="white" stop-opacity="0.5"/>
</linearGradient>
<linearGradient id="paint15_linear_2298_110426" x1="12" y1="5" x2="12" y2="20.0769" gradientUnits="userSpaceOnUse">
<stop stop-color="#54D6A2"/>
<stop offset="1" stop-color="#0D5F42"/>
</linearGradient>
<clipPath id="clip0_2298_110426">
<rect width="24" height="24" fill="white"/>
</clipPath>
</defs>
</svg>
