<svg width="24" height="24" viewBox="0 0 24 24" fill="none" xmlns="http://www.w3.org/2000/svg">
<g clip-path="url(#clip0_4487_16087)">
<rect width="24" height="24" rx="8" fill="url(#paint0_linear_4487_16087)"/>
<rect width="24" height="24" rx="8" fill="url(#paint1_radial_4487_16087)" fill-opacity="0.2" style="mix-blend-mode:hard-light"/>
<path d="M15.8593 9C17.0173 9 17.9333 9.98043 17.8547 11.1358L17.3439 18.6421C17.2489 19.9726 16.5324 21 14.754 21H9.24604C7.46762 21 6.75107 19.9726 6.65611 18.6421L6.14533 11.1358C6.06672 9.98043 6.9827 9 8.14072 9H15.8593Z" fill="#5C5D5E"/>
<path opacity="0.5" d="M9.5 -5.5L14.5 -5.5C15.8807 -5.5 17 -4.38071 17 -3V-0.543061C17 0.832055 15.8894 1.94901 14.5143 1.9569L9.51434 1.98558C8.12805 1.99353 7 0.871933 7 -0.514381L7 -3C7 -4.38071 8.11929 -5.5 9.5 -5.5Z" fill="url(#paint2_linear_4487_16087)"/>
<path d="M15.6927 7.8335C16.8507 7.8335 17.7667 8.81393 17.6881 9.96927L17.1955 17.2078C17.1032 18.5013 16.4066 19.5002 14.6775 19.5002H9.32262C7.5936 19.5002 6.89696 18.5013 6.80463 17.2078L6.31208 9.96928C6.23346 8.81393 7.14945 7.8335 8.30747 7.8335H15.6927Z" fill="url(#paint3_linear_4487_16087)"/>
<path d="M15.6927 7.8335C16.8507 7.8335 17.7667 8.81393 17.6881 9.96927L17.1955 17.2078C17.1032 18.5013 16.4066 19.5002 14.6775 19.5002H9.32262C7.5936 19.5002 6.89696 18.5013 6.80463 17.2078L6.31208 9.96928C6.23346 8.81393 7.14945 7.8335 8.30747 7.8335H15.6927Z" fill="url(#paint4_radial_4487_16087)" fill-opacity="0.2" style="mix-blend-mode:hard-light"/>
<path fill-rule="evenodd" clip-rule="evenodd" d="M17.6943 17.2434C17.6428 17.9643 17.4187 18.6655 16.908 19.1884C16.3899 19.7189 15.6412 20.0002 14.6776 20.0002H9.32264C8.35897 20.0002 7.61031 19.7189 7.0922 19.1884C6.5815 18.6655 6.35738 17.9643 6.30593 17.2434L6.30581 17.2417L5.81326 10.0032C5.71499 8.55904 6.85997 7.3335 8.30749 7.3335H15.6927C17.1402 7.3335 18.2852 8.55904 18.187 10.0032L17.6943 17.2434ZM6.80466 17.2078L6.3121 9.96928C6.23349 8.81393 7.14947 7.8335 8.30749 7.8335H15.6927C16.8507 7.8335 17.7667 8.81393 17.6881 9.96927L17.1956 17.2078C17.1032 18.5013 16.4066 19.5002 14.6776 19.5002H9.32264C7.59363 19.5002 6.89698 18.5013 6.80466 17.2078Z" fill="#7F0000"/>
<path fill-rule="evenodd" clip-rule="evenodd" d="M16.1981 17.1366L16.6904 9.90139C16.7297 9.32371 16.2717 8.8335 15.6927 8.8335H8.30747C7.72846 8.8335 7.27047 9.32371 7.30977 9.90139L7.8021 17.1366C7.80213 17.1371 7.80217 17.1376 7.80221 17.1381C7.83796 17.6356 7.98135 17.952 8.16525 18.1403C8.33451 18.3136 8.65644 18.5002 9.32262 18.5002H14.6775C15.3437 18.5002 15.6657 18.3136 15.8349 18.1403C16.0188 17.9521 16.1622 17.6357 16.1979 17.1383C16.198 17.1377 16.198 17.1371 16.1981 17.1366ZM17.1955 17.2078L17.6881 9.96927C17.7667 8.81393 16.8507 7.8335 15.6927 7.8335H8.30747C7.14945 7.8335 6.23346 8.81393 6.31208 9.96928L6.80463 17.2078C6.89696 18.5013 7.5936 19.5002 9.32262 19.5002H14.6775C16.4066 19.5002 17.1032 18.5013 17.1955 17.2078Z" fill="url(#paint5_linear_4487_16087)"/>
<path fill-rule="evenodd" clip-rule="evenodd" d="M10.7621 11.0225C10.9922 11.0225 11.1788 11.209 11.1788 11.4391V16.4391C11.1788 16.6692 10.9922 16.8558 10.7621 16.8558C10.532 16.8558 10.3455 16.6692 10.3455 16.4391V11.4391C10.3455 11.209 10.532 11.0225 10.7621 11.0225ZM14.0955 11.0225C14.3256 11.0225 14.5121 11.209 14.5121 11.4391V16.4391C14.5121 16.6692 14.3256 16.8558 14.0955 16.8558C13.8653 16.8558 13.6788 16.6692 13.6788 16.4391V11.4391C13.6788 11.209 13.8653 11.0225 14.0955 11.0225Z" fill="#FFAC88"/>
<g style="mix-blend-mode:soft-light">
<path d="M17.1954 17.2078L17.688 9.96927C17.7666 8.81393 16.8506 7.8335 15.6926 7.8335H11.1667C11.1667 7.8335 14.9167 18.2502 8.25 19.5002H14.6775C16.4065 19.5002 17.1031 18.5013 17.1954 17.2078Z" fill="url(#paint6_linear_4487_16087)"/>
</g>
<path opacity="0.7" d="M18.8571 7.5L15.2451 7.5C15.1654 7.33822 15.1037 7.15511 15.0377 6.95067L14.8646 6.41111C14.6897 5.86711 14.1986 5.5 13.6449 5.5L10.3551 5.5C9.80142 5.5 9.31029 5.86711 9.13543 6.41111L8.96228 6.95067C8.89628 7.15511 8.83458 7.33822 8.75486 7.5H5.14286C4.788 7.5 4.5 7.79867 4.5 8.16667C4.5 8.53467 4.788 8.83333 5.14286 8.83333H18.8571C19.212 8.83333 19.5 8.53467 19.5 8.16667C19.5 7.79867 19.212 7.5 18.8571 7.5Z" fill="#7F0000"/>
<path d="M18.8571 6.5H15.2451C15.1654 6.33822 15.1037 6.15511 15.0377 5.95067L14.8646 5.41111C14.6897 4.86711 14.1986 4.5 13.6449 4.5H10.3551C9.80142 4.5 9.31029 4.86711 9.13543 5.41111L8.96228 5.95067C8.89628 6.15511 8.83458 6.33822 8.75486 6.5H5.14286C4.788 6.5 4.5 6.79867 4.5 7.16667C4.5 7.53467 4.788 7.83333 5.14286 7.83333H18.8571C19.212 7.83333 19.5 7.53467 19.5 7.16667C19.5 6.79867 19.212 6.5 18.8571 6.5Z" fill="#7F0000"/>
<path fill-rule="evenodd" clip-rule="evenodd" d="M10.3334 10.75C10.5635 10.75 10.7501 10.9365 10.7501 11.1667V16.1667C10.7501 16.3968 10.5635 16.5833 10.3334 16.5833C10.1033 16.5833 9.91675 16.3968 9.91675 16.1667V11.1667C9.91675 10.9365 10.1033 10.75 10.3334 10.75ZM13.6667 10.75C13.8969 10.75 14.0834 10.9365 14.0834 11.1667V16.1667C14.0834 16.3968 13.8969 16.5833 13.6667 16.5833C13.4366 16.5833 13.2501 16.3968 13.2501 16.1667V11.1667C13.2501 10.9365 13.4366 10.75 13.6667 10.75Z" fill="#800000"/>
</g>
<defs>
<linearGradient id="paint0_linear_4487_16087" x1="12" y1="0" x2="12" y2="24" gradientUnits="userSpaceOnUse">
<stop offset="0.4" stop-color="#ECECEC"/>
<stop offset="1" stop-color="#B8BCBF"/>
</linearGradient>
<radialGradient id="paint1_radial_4487_16087" cx="0" cy="0" r="1" gradientUnits="userSpaceOnUse" gradientTransform="translate(12 12) rotate(90) scale(12)">
<stop offset="0.39" stop-color="#E1E1E1"/>
<stop offset="1" stop-color="white" stop-opacity="0"/>
</radialGradient>
<linearGradient id="paint2_linear_4487_16087" x1="12" y1="1.93647" x2="12" y2="-5.49998" gradientUnits="userSpaceOnUse">
<stop stop-color="#66A669" stop-opacity="0"/>
<stop offset="1" stop-color="#66A669"/>
</linearGradient>
<linearGradient id="paint3_linear_4487_16087" x1="12.0001" y1="7.8335" x2="12.0001" y2="19.5002" gradientUnits="userSpaceOnUse">
<stop offset="0.4" stop-color="#FF6A3C"/>
<stop offset="1" stop-color="#FF3030"/>
</linearGradient>
<radialGradient id="paint4_radial_4487_16087" cx="0" cy="0" r="1" gradientUnits="userSpaceOnUse" gradientTransform="translate(12.0001 13.6668) rotate(90) scale(5.83333 5.69271)">
<stop offset="0.39" stop-color="#FF0000"/>
<stop offset="1" stop-color="#FF0000" stop-opacity="0"/>
</radialGradient>
<linearGradient id="paint5_linear_4487_16087" x1="12.0001" y1="7.8335" x2="12.0001" y2="19.5002" gradientUnits="userSpaceOnUse">
<stop stop-color="#FF8469"/>
<stop offset="1" stop-color="white" stop-opacity="0"/>
</linearGradient>
<linearGradient id="paint6_linear_4487_16087" x1="14.9167" y1="7.8335" x2="14.9167" y2="19.5002" gradientUnits="userSpaceOnUse">
<stop stop-color="white"/>
<stop offset="1" stop-color="white" stop-opacity="0"/>
</linearGradient>
<clipPath id="clip0_4487_16087">
<rect width="24" height="24" fill="white"/>
</clipPath>
</defs>
</svg>
