<svg
  width="80"
  height="40"
  viewBox="0 0 80 40"
  fill="currentColor"
  xmlns="http://www.w3.org/2000/svg"
>
  <path
    d="M23.893 10.9837C22.5686 9.3126 20.4637 8.77547 19.1967 9.78317C17.9296 10.7909 17.9733 12.96 19.2977 14.6403C20.6221 16.3205 22.727 16.8485 23.9963 15.8408C25.2656 14.8331 25.2197 12.6616 23.893 10.9929"
  />
  <path
    d="M15.0347 32.6731C14.6316 32.672 14.2293 32.6367 13.8321 32.5675C10.8486 32.0602 9.47156 29.2276 8.83355 27.0722C8.96666 27.0424 9.02862 27.0263 8.83355 27.0722C8.58912 26.2479 8.42163 25.4026 8.33323 24.5473L8.28504 23.9114L0 27.4326L0.089506 27.8068C0.615998 29.7533 1.43056 31.6102 2.50617 33.3158C4.83332 36.9724 7.99127 38.9052 11.6381 38.9052C15.893 38.9052 18.2569 36.7612 19.4893 34.9639C20.3028 33.7807 20.8673 32.4445 21.1486 31.0364L21.3231 29.9553L20.4326 30.5934C18.4887 31.9868 16.7238 32.6593 15.037 32.6593L15.0347 32.6731ZM18.7435 34.4566C17.1369 36.8094 14.7432 38.0008 11.645 38.0008C8.28733 38.0008 5.47822 36.27 3.29795 32.8544C2.73845 31.9715 2.25403 31.0432 1.84979 30.0793C3.19238 28.8719 2.92386 27.7241 2.73108 27.2651L6.32738 25.7363C6.51098 26.2298 6.98835 27.2077 7.92013 27.2237C8.05431 27.7049 8.21443 28.1785 8.39979 28.6423C9.51746 31.3968 11.342 33.0702 13.6783 33.4627C14.1261 33.5415 14.58 33.5807 15.0347 33.5798C16.6114 33.5798 18.2271 33.0679 19.9438 32.0166C19.6567 32.8808 19.2528 33.7018 18.7435 34.4566Z"
  />
  <path
    d="M11.5069 33.8851C10.7105 33.5913 9.65229 33.1689 8.73644 33.4628C7.70812 33.7933 8.2636 35.0259 8.84432 35.4827C9.34812 35.8596 9.94973 36.0835 10.5773 36.1277C11.3577 36.2035 12.9829 35.9969 13.4442 35.2945C14.103 34.296 12.6707 34.3189 11.5069 33.8851Z"
  />
  <path
    d="M25.971 6.10816C25.8064 6.10805 25.642 6.09345 25.4799 6.06455C24.2704 5.86025 23.7036 4.70795 23.4465 3.8288C23.5016 3.8288 23.5268 3.81044 23.4465 3.8288C23.3466 3.49469 23.2782 3.15193 23.2423 2.80504L23.2216 2.54565L19.8525 3.97571L19.8892 4.1295C20.1027 4.92377 20.4346 5.68134 20.8738 6.37672C21.8193 7.86187 23.1046 8.6492 24.5871 8.6492C26.3176 8.6492 27.2792 7.77694 27.7818 7.0424C28.1125 6.55766 28.342 6.01115 28.4566 5.4356L28.5277 4.99488L28.1651 5.25426C27.3733 5.82123 26.655 6.09668 25.971 6.09668V6.10816ZM27.4651 6.83581C26.8087 7.793 25.8379 8.27734 24.578 8.27734C23.2124 8.27734 22.0695 7.57264 21.1813 6.18391C20.955 5.82491 20.7585 5.44796 20.5938 5.05685C21.1446 4.56334 21.0344 4.09507 20.9541 3.90914L22.4183 3.28708C22.4941 3.48908 22.6869 3.88618 23.0655 3.89307C23.1214 4.08762 23.1873 4.27916 23.2629 4.46693C23.7219 5.59169 24.4586 6.27113 25.4088 6.43411C25.5914 6.4657 25.7765 6.48182 25.9619 6.48231C26.673 6.46077 27.3638 6.24052 27.9562 5.84648C27.839 6.19736 27.6737 6.5303 27.4651 6.83581Z"
  />
  <path
    d="M24.5326 6.60628C24.2136 6.48692 23.7797 6.31476 23.4056 6.43413C22.9878 6.56726 23.2128 7.06996 23.4492 7.25589C23.654 7.41176 23.8995 7.50503 24.1562 7.52445C24.4729 7.55659 25.134 7.47166 25.3222 7.18703C25.5885 6.78074 25.0077 6.78992 24.5326 6.61317"
  />
  <path
    d="M25.4174 6.4317C24.4672 6.26872 23.7259 5.58928 23.2692 4.46452C23.1912 4.26711 23.1269 4.072 23.0741 3.89066C22.6955 3.89066 22.5004 3.48667 22.4269 3.28467L20.9627 3.90673C21.043 4.09266 21.1532 4.56093 20.6024 5.05444C20.7666 5.44653 20.9631 5.82428 21.1899 6.18379C22.0781 7.57253 23.221 8.27722 24.5866 8.27722C25.8465 8.27722 26.8173 7.79289 27.4737 6.83569C27.6823 6.53019 27.8476 6.19724 27.9648 5.84636C27.3718 6.24081 26.6801 6.46109 25.9682 6.4822C25.7835 6.48161 25.5993 6.46549 25.4174 6.434V6.4317ZM25.3233 7.17771C25.1351 7.46235 24.4741 7.54728 24.1551 7.51514C23.9002 7.49628 23.6559 7.40555 23.4505 7.25346C23.221 7.06753 22.9915 6.56483 23.4069 6.4317C23.781 6.31234 24.2125 6.48449 24.5338 6.60386C25.0066 6.7806 25.5895 6.76913 25.3233 7.17771Z"
    fill="#6DC594"
  />
  <path
    d="M25.8584 5.99795C25.7504 5.87473 25.6529 5.74267 25.5669 5.60314C24.9219 4.55872 25.4131 3.37198 25.9021 2.60072C25.9457 2.63286 25.9686 2.64663 25.9021 2.60072C26.0855 2.30364 26.2977 2.02532 26.5356 1.76977L26.7169 1.58385L23.4139 0L23.3244 0.128544C22.8694 0.812851 22.5204 1.56196 22.2892 2.35052C21.7979 4.04225 22.0596 5.52739 23.0374 6.64067C24.1851 7.93988 25.4705 8.08679 26.3497 7.97891C26.9298 7.90952 27.4897 7.72287 27.9954 7.4303L28.3742 7.20076L27.938 7.09976C26.9924 6.87022 26.3106 6.52361 25.8562 6.00713L25.8584 5.99795ZM26.3152 7.61393C25.1675 7.75166 24.1576 7.34307 23.3312 6.39736C22.4154 5.36671 22.1859 4.04454 22.6449 2.4607C22.7647 2.05231 22.9183 1.65459 23.104 1.27167C23.8385 1.36119 24.114 0.96867 24.2035 0.787332L25.6381 1.47596C25.5348 1.66418 25.3649 2.07277 25.6105 2.3597C25.5005 2.52991 25.4001 2.70617 25.3099 2.88765C24.7659 3.97109 24.7452 4.97878 25.2525 5.79825C25.3486 5.95604 25.4584 6.10506 25.5807 6.24356C26.0666 6.76482 26.6895 7.13871 27.378 7.32241C27.0361 7.46613 26.6762 7.56266 26.3083 7.60934"
  />
  <path
    d="M24.5325 5.24753C24.4108 4.92846 24.2524 4.49004 23.9173 4.28804C23.5386 4.0585 23.3113 4.56349 23.3274 4.86419C23.3484 5.11948 23.4424 5.36333 23.5983 5.56659C23.7842 5.82598 24.2869 6.2667 24.622 6.21849C25.104 6.15193 24.7115 5.72039 24.5325 5.24753Z"
  />
  <path
    d="M25.2425 5.79827C24.7353 4.97881 24.7559 3.96193 25.2999 2.88767C25.3911 2.70666 25.4914 2.53045 25.6006 2.35972C25.355 2.07279 25.5249 1.67109 25.6282 1.47598L24.1936 0.787354C24.1063 0.968692 23.8286 1.36121 23.0941 1.27169C22.9093 1.65504 22.7558 2.05268 22.635 2.46072C22.1759 4.04457 22.4055 5.36673 23.3076 6.39279C24.1408 7.3385 25.1438 7.74709 26.2915 7.60936C26.6594 7.56268 27.0193 7.46616 27.3612 7.32244C26.6727 7.13873 26.0498 6.76484 25.5639 6.24359C25.4416 6.10508 25.3318 5.95606 25.2357 5.79827H25.2425ZM24.6136 6.21834C24.2762 6.26654 23.7758 5.82582 23.5899 5.56643C23.4389 5.36162 23.3497 5.1179 23.3328 4.86403C23.3167 4.56333 23.544 4.06293 23.9227 4.28788C24.2578 4.48988 24.4162 4.92831 24.5379 5.24737C24.7169 5.72023 25.1094 6.15177 24.6274 6.21834"
    fill="#6DC594"
  />
  <path
    d="M5.32538 11.197C5.32538 11.197 16.252 16.706 20.2706 24.5816C21.8564 27.692 22.141 30.474 20.7893 33.7129C16.7179 43.4661 6.04831 37.9112 6.04831 37.9112C6.04831 37.9112 10.6682 41.7124 18.2762 39.0589C20.777 38.2206 23.0162 36.7452 24.7734 34.7779C29.3176 29.8933 35.6472 19.27 26.7081 5.94507H25.4527C25.4527 5.94507 29.951 15.6364 25.3816 17.7344C20.8879 19.8003 9.27512 9.70039 9.27512 9.70039L5.32538 11.197Z"
  />
  <path
    opacity="0.3"
    d="M13.6795 33.4628C11.3431 33.0657 9.51858 31.3969 8.4009 28.6263C8.21586 28.1655 8.05574 27.695 7.92124 27.2169C6.98946 27.2009 6.51209 26.223 6.32849 25.7295L2.73219 27.2651C2.92497 27.7242 3.19119 28.8719 1.84172 30.0816C2.24596 31.0456 2.73038 31.9739 3.28988 32.8568C5.47015 36.2724 8.27926 38.0031 11.6369 38.0031C14.7352 38.0031 17.122 36.8118 18.7354 34.459C19.2476 33.7061 19.6545 32.8867 19.9449 32.0236C18.2282 33.0749 16.6125 33.5867 15.0358 33.5867C14.5811 33.5876 14.1273 33.5485 13.6795 33.4697V33.4628ZM13.45 35.306C12.9909 36.0084 11.3638 36.2242 10.5835 36.1393C9.95596 36.095 9.35444 35.8711 8.85072 35.4942C8.27008 35.0352 7.71469 33.8048 8.74286 33.4743C9.66087 33.1805 10.7258 33.6028 11.513 33.8966C12.6765 34.3305 14.1086 34.3075 13.45 35.306Z"
  />
  <path
    d="M23.8435 12.9255C23.8435 12.9255 23.568 15.1314 21.2566 14.8216"
    stroke="#2FAC66"
    stroke-width="0.093731"
    stroke-miterlimit="10"
  />
  <path
    d="M21.1746 14.4106C21.2368 14.5241 21.2712 14.6507 21.2748 14.78C21.2783 14.9093 21.2511 15.0377 21.1953 15.1544"
    stroke="#2FAC66"
    stroke-width="0.093731"
    stroke-miterlimit="10"
  />
  <path
    d="M23.4457 12.7419C23.5353 12.835 23.6457 12.9055 23.7677 12.9478C23.8898 12.9901 24.0201 13.0029 24.1481 12.9853"
    stroke="#2FAC66"
    stroke-width="0.093731"
    stroke-miterlimit="10"
  />
  <path
    d="M39.2827 29.1745V29.1539C39.2827 27.6113 40.3821 26.342 41.9545 26.342C43.7609 26.342 44.5873 27.7422 44.5873 29.2755C44.5873 29.3972 44.5873 29.5372 44.5666 29.6795H40.8045C40.8526 29.9893 41.0151 30.2698 41.2598 30.4657C41.5046 30.6616 41.8138 30.7587 42.1266 30.7377C42.3715 30.7412 42.6144 30.6938 42.84 30.5986C43.0656 30.5034 43.269 30.3624 43.4373 30.1845L44.3141 30.9604C44.05 31.2888 43.7128 31.551 43.3295 31.7259C42.9461 31.9009 42.5271 31.9838 42.106 31.9681C40.4831 31.9681 39.2827 30.8204 39.2827 29.1745ZM43.0953 28.7155C43.0035 28.0268 42.5995 27.5677 41.9476 27.5677C41.2957 27.5677 40.8986 28.0268 40.7792 28.7155H43.0953Z"
  />
  <path
    d="M46.4125 24.788H47.9641V30.4348H51.4829V31.8465H46.4125V24.788Z"
  />
  <path
    d="M52.6502 29.1745V29.1539C52.6502 27.6022 53.9011 26.342 55.5859 26.342C57.2707 26.342 58.4964 27.5815 58.4964 29.1355V29.1539C58.4964 30.7079 57.2455 31.9681 55.563 31.9681C53.8805 31.9681 52.6479 30.7285 52.6479 29.1745H52.6502ZM56.9838 29.1745V29.1539C56.9915 28.9619 56.9605 28.7703 56.8928 28.5904C56.825 28.4106 56.7218 28.2462 56.5892 28.1071C56.4567 27.9679 56.2976 27.8568 56.1213 27.7803C55.945 27.7038 55.7551 27.6635 55.563 27.6618C54.6838 27.6618 54.1605 28.339 54.1605 29.1355V29.1539C54.1528 29.3462 54.1838 29.5381 54.2517 29.7182C54.3196 29.8983 54.423 30.0629 54.5557 30.2023C54.6885 30.3417 54.8479 30.453 55.0244 30.5296C55.201 30.6062 55.3912 30.6465 55.5836 30.6482C56.4605 30.6482 56.9838 29.9711 56.9838 29.1745Z" 
  />
  <path
    d="M59.8128 30.2948V30.2741C59.8128 29.0943 60.7103 28.5503 61.9888 28.5503C62.4396 28.5488 62.8871 28.6265 63.3109 28.7798V28.6903C63.3109 28.0544 62.9184 27.7009 62.1518 27.7009C61.6402 27.7019 61.1336 27.8017 60.6598 27.9948L60.2765 26.8241C60.9332 26.5227 61.6497 26.3743 62.3721 26.3903C63.2099 26.3903 63.8159 26.6198 64.2084 26.9962C64.6009 27.3727 64.7915 27.9948 64.7915 28.7201V31.8557H63.3109V31.2726C63.106 31.5007 62.8533 31.6806 62.5708 31.7997C62.2883 31.9187 61.9829 31.9739 61.6766 31.9613C60.6575 31.9613 59.822 31.3759 59.822 30.3086L59.8128 30.2948ZM63.3408 29.9551V29.6819C63.0324 29.5477 62.6993 29.4797 62.363 29.4822C61.7065 29.4822 61.3025 29.7439 61.3025 30.2282V30.2466C61.3025 30.662 61.6468 30.9031 62.1403 30.9031C62.8565 30.9031 63.3408 30.5105 63.3408 29.9551Z"
  />
  <path
    d="M66.6282 26.443H68.1615V27.2097C68.5127 26.7506 68.9672 26.342 69.743 26.342C70.9022 26.342 71.5793 27.1087 71.5793 28.3482V31.8464H70.046V28.8325C70.046 28.1072 69.704 27.733 69.1279 27.733C68.5517 27.733 68.1707 28.1072 68.1707 28.8325V31.8464H66.6374L66.6282 26.443Z"
  />
  <path
    d="M31.2233 33.0998H32.5544L33.7249 37.693L34.9918 33.0815H36.0566L37.3258 37.693L38.4963 33.0998H39.7952L37.8651 39.931H36.7842L35.5081 35.494L34.2344 39.931H33.1511L31.2233 33.0998Z"
  />
  <path
    d="M40.1673 38.3908V38.3701C40.1673 37.2385 40.8857 36.7151 41.9095 36.7151C42.2732 36.712 42.6336 36.7848 42.9676 36.9286V36.8414C42.9676 36.2308 42.6532 35.8911 42.0495 35.8911C41.6348 35.8924 41.2258 35.9881 40.8536 36.1711L40.546 35.0487C41.0588 34.762 41.6389 34.6177 42.2262 34.6309C42.8965 34.6309 43.3739 34.8444 43.6884 35.2139C44.0029 35.5835 44.1475 36.1711 44.1475 36.8689V39.8828H42.9608V39.3205C42.8135 39.5292 42.6171 39.6985 42.3889 39.8134C42.1608 39.9283 41.9078 39.9853 41.6524 39.9792C40.8375 39.9792 40.1673 39.4169 40.1673 38.3908ZM42.9837 38.0511V37.7894C42.7426 37.665 42.4746 37.6019 42.2033 37.6058C41.6776 37.6058 41.3563 37.856 41.3563 38.3219V38.3426C41.3525 38.4296 41.3676 38.5164 41.4003 38.597C41.4331 38.6777 41.4829 38.7503 41.5463 38.81C41.6097 38.8697 41.6852 38.915 41.7677 38.9429C41.8501 38.9708 41.9377 38.9805 42.0242 38.9715C42.1492 38.9809 42.2748 38.9639 42.3928 38.9217C42.5108 38.8795 42.6187 38.8129 42.7093 38.7264C42.8 38.6398 42.8715 38.5352 42.9191 38.4193C42.9668 38.3033 42.9896 38.1787 42.986 38.0534"
  />
  <path
    d="M45.6078 34.6905H46.8358V35.7349C47.086 35.0187 47.49 34.5551 48.213 34.5872V36.1274H48.1487C47.3339 36.1274 46.8335 36.7197 46.8335 37.9638V39.8828H45.6055L45.6078 34.6905Z"
  />
  <path
    d="M49.0547 37.3141V37.2957C49.0547 35.8129 49.9338 34.5917 51.1939 34.5917C52.6377 34.5917 53.3011 35.9392 53.3011 37.4128C53.3011 37.5276 53.3011 37.663 53.285 37.7984H50.2735C50.3952 38.4687 50.7808 38.8176 51.3317 38.8176C51.5361 38.8163 51.7374 38.7672 51.9195 38.6744C52.1016 38.5815 52.2595 38.4474 52.3806 38.2828L53.083 39.0288C52.8976 39.3297 52.6373 39.5774 52.3275 39.7476C52.0177 39.9178 51.669 40.0047 51.3156 39.9998C50.0141 39.9998 49.0547 38.9048 49.0547 37.3141ZM52.1052 36.878C52.034 36.2192 51.7104 35.7739 51.1871 35.7739C50.6637 35.7739 50.3469 36.21 50.2505 36.878H52.1052Z"
  />
  <path
    d="M54.6151 32.8105H55.8431V35.425C56.1254 34.9888 56.4881 34.5917 57.1101 34.5917C58.0397 34.5917 58.5792 35.3286 58.5792 36.5199V39.8827H57.3488V36.9859C57.3488 36.2972 57.0734 35.93 56.6051 35.93C56.1369 35.93 55.8385 36.2881 55.8385 36.9859V39.8827H54.6105L54.6151 32.8105Z"
  />
  <path
    d="M59.8421 37.3141V37.2957C59.8421 35.8037 60.8429 34.5917 62.1903 34.5917C63.5376 34.5917 64.5246 35.7831 64.5246 37.2751V37.2957C64.5246 38.7878 63.5239 39.9975 62.1742 39.9975C60.8245 39.9975 59.8421 38.8061 59.8421 37.3141ZM63.3127 37.3141V37.2957C63.3127 36.5291 62.8536 35.8611 62.165 35.8611C61.4764 35.8611 61.0449 36.5107 61.0449 37.2751V37.2957C61.0449 38.0601 61.5039 38.7304 62.1811 38.7304C62.8582 38.7304 63.3035 38.0808 63.3035 37.3141"
  />
  <path
    d="M65.783 38.0509V34.6904H67.011V37.5872C67.011 38.2758 67.2841 38.6431 67.7524 38.6431C68.2206 38.6431 68.519 38.2827 68.519 37.5872V34.6904H69.7448V39.8826H68.5167V39.1458C68.2344 39.5819 67.8717 39.979 67.2497 39.979C66.3316 39.979 65.7807 39.2422 65.7807 38.0509"
  />
  <path
    d="M70.9051 39.1942L71.4307 38.2255C71.7998 38.5836 72.2817 38.8027 72.7942 38.8453C73.15 38.8453 73.3129 38.6915 73.3129 38.4573V38.439C73.3129 38.1199 72.8929 38.012 72.4155 37.8376C71.8095 37.6241 71.1232 37.2867 71.1232 36.279V36.2583C71.1232 35.2024 71.8347 34.6125 72.707 34.6125C73.2944 34.6293 73.8596 34.8409 74.3137 35.2139L73.8547 36.2308C73.5176 35.9627 73.1119 35.7949 72.684 35.7464C72.3856 35.7464 72.2249 35.9002 72.2249 36.1045V36.1229C72.2249 36.4144 72.6381 36.5498 73.1064 36.7426C73.71 36.986 74.4124 37.3349 74.4124 38.2829V38.2944C74.4124 39.4421 73.694 39.97 72.7575 39.97C72.0609 39.9552 71.3965 39.6743 70.9005 39.185"
  />
  <path
    d="M75.4921 37.3141V37.2957C75.4921 35.8129 76.3735 34.5917 77.6314 34.5917C79.0775 34.5917 79.7386 35.9392 79.7386 37.4128C79.7386 37.5276 79.7386 37.663 79.7225 37.7984H76.7133C76.8326 38.4687 77.2205 38.8176 77.7691 38.8176C77.9736 38.8166 78.175 38.7678 78.3572 38.6749C78.5394 38.582 78.6972 38.4477 78.8181 38.2828L79.5205 39.0288C79.3352 39.3299 79.0749 39.5777 78.7651 39.7479C78.4553 39.9181 78.1065 40.0049 77.7531 39.9998C76.4539 39.9998 75.4921 38.9048 75.4921 37.3141ZM78.545 36.878C78.4715 36.2192 78.1502 35.7739 77.6268 35.7739C77.1035 35.7739 76.789 36.21 76.6903 36.878H78.545Z"
  />
</svg>
