<svg width="18" height="18" viewBox="0 0 18 18" fill="none" xmlns="http://www.w3.org/2000/svg">
<path d="M9 4.5C9 6 9.75 6.75 11.25 6.75H13.5L9 2.25V4.5Z" fill="black" fill-opacity="0.56"/>
<path opacity="0.4" d="M9 4.5V2.25H4.5C3 2.25 2.25 3 2.25 4.5V13.5C2.25 15 3 15.75 4.5 15.75H11.25C12.75 15.75 13.5 15 13.5 13.5V6.75H11.25C9.75 6.75 9 6 9 4.5Z" fill="black" fill-opacity="0.56"/>
<path d="M17.0189 12.2152C17.0759 12.078 17.0759 11.9227 17.0189 11.7855C16.9904 11.7165 16.9493 11.6542 16.8975 11.6025L15.3975 10.1025C15.1778 9.88275 14.8215 9.88275 14.6017 10.1025C14.382 10.3222 14.382 10.6785 14.6017 10.8982L15.1417 11.4382H9.75C9.4395 11.4382 9.1875 11.6902 9.1875 12.0007C9.1875 12.3112 9.4395 12.5632 9.75 12.5632H15.1417L14.6017 13.1032C14.382 13.323 14.382 13.6792 14.6017 13.899C14.7112 14.0085 14.8553 14.064 14.9993 14.064C15.1433 14.064 15.2873 14.0092 15.3968 13.899L16.8968 12.399C16.9493 12.3457 16.9904 12.2835 17.0189 12.2152Z" fill="black" fill-opacity="0.56"/>
</svg>
