<svg width="24" height="24" viewBox="0 0 24 24" fill="none" xmlns="http://www.w3.org/2000/svg">
<g clip-path="url(#clip0_4420_17015)">
<mask id="mask0_4420_17015" style="mask-type:alpha" maskUnits="userSpaceOnUse" x="0" y="0" width="24" height="24">
<rect width="24" height="24" rx="8" fill="url(#paint0_linear_4420_17015)"/>
</mask>
<g mask="url(#mask0_4420_17015)">
<rect width="24" height="24" rx="8" fill="url(#paint1_linear_4420_17015)"/>
<rect width="24" height="24" rx="8" fill="url(#paint2_linear_4420_17015)"/>
<rect width="24" height="24" rx="8" fill="url(#paint3_linear_4420_17015)"/>
<path fill-rule="evenodd" clip-rule="evenodd" d="M5.93699 14.5C5.71496 15.3626 4.93192 16 4 16C3.06808 16 2.28504 15.3626 2.06301 14.5C2.02188 14.6598 2 14.8274 2 15C2 16.1046 2.89543 17 4 17C5.10457 17 6 16.1046 6 15C6 14.8274 5.97812 14.6598 5.93699 14.5Z" fill="black"/>
<path fill-rule="evenodd" clip-rule="evenodd" d="M21.937 14.5C21.715 15.3626 20.9319 16 20 16C19.0681 16 18.285 15.3626 18.063 14.5C18.0219 14.6598 18 14.8274 18 15C18 16.1046 18.8954 17 20 17C21.1046 17 22 16.1046 22 15C22 14.8274 21.9781 14.6598 21.937 14.5Z" fill="black"/>
<path fill-rule="evenodd" clip-rule="evenodd" d="M13.937 14.5C13.715 15.3626 12.9319 16 12 16C11.0681 16 10.285 15.3626 10.063 14.5C10.0219 14.6598 10 14.8273 10 15C10 16.1046 10.8954 17 12 17C13.1046 17 14 16.1046 14 15C14 14.8273 13.9781 14.6598 13.937 14.5Z" fill="black"/>
<path d="M5.875 14C5.875 15.0355 5.03553 15.875 4 15.875C2.96447 15.875 2.125 15.0355 2.125 14C2.125 12.9645 2.96447 12.125 4 12.125C5.03553 12.125 5.875 12.9645 5.875 14Z" fill="url(#paint4_linear_4420_17015)" stroke="white" stroke-width="0.25"/>
<g filter="url(#filter0_d_4420_17015)">
<path d="M7 7.81818L2 6V10L7 7.81818Z" fill="url(#paint5_linear_4420_17015)" shape-rendering="crispEdges"/>
<path d="M2.125 9.80907V6.17846L6.66326 7.82874L2.125 9.80907Z" stroke="white" stroke-width="0.25" shape-rendering="crispEdges"/>
</g>
<g filter="url(#filter1_d_4420_17015)">
<path d="M23 7.81818L18 6V10L23 7.81818Z" fill="url(#paint6_linear_4420_17015)" shape-rendering="crispEdges"/>
<path d="M18.125 9.80907V6.17846L22.6633 7.82874L18.125 9.80907Z" stroke="white" stroke-width="0.25" shape-rendering="crispEdges"/>
</g>
<path d="M21.875 14C21.875 15.0355 21.0355 15.875 20 15.875C18.9645 15.875 18.125 15.0355 18.125 14C18.125 12.9645 18.9645 12.125 20 12.125C21.0355 12.125 21.875 12.9645 21.875 14Z" fill="url(#paint7_linear_4420_17015)" stroke="white" stroke-width="0.25"/>
<path d="M13.875 14C13.875 15.0355 13.0355 15.875 12 15.875C10.9645 15.875 10.125 15.0355 10.125 14C10.125 12.9645 10.9645 12.125 12 12.125C13.0355 12.125 13.875 12.9645 13.875 14Z" fill="url(#paint8_linear_4420_17015)" stroke="white" stroke-width="0.25"/>
<path opacity="0.5" d="M5 13H19V15H5V13Z" fill="white"/>
</g>
</g>
<defs>
<filter id="filter0_d_4420_17015" x="2" y="6" width="5" height="5" filterUnits="userSpaceOnUse" color-interpolation-filters="sRGB">
<feFlood flood-opacity="0" result="BackgroundImageFix"/>
<feColorMatrix in="SourceAlpha" type="matrix" values="0 0 0 0 0 0 0 0 0 0 0 0 0 0 0 0 0 0 127 0" result="hardAlpha"/>
<feOffset dy="1"/>
<feComposite in2="hardAlpha" operator="out"/>
<feColorMatrix type="matrix" values="0 0 0 0 0 0 0 0 0 0 0 0 0 0 0 0 0 0 1 0"/>
<feBlend mode="normal" in2="BackgroundImageFix" result="effect1_dropShadow_4420_17015"/>
<feBlend mode="normal" in="SourceGraphic" in2="effect1_dropShadow_4420_17015" result="shape"/>
</filter>
<filter id="filter1_d_4420_17015" x="18" y="6" width="5" height="5" filterUnits="userSpaceOnUse" color-interpolation-filters="sRGB">
<feFlood flood-opacity="0" result="BackgroundImageFix"/>
<feColorMatrix in="SourceAlpha" type="matrix" values="0 0 0 0 0 0 0 0 0 0 0 0 0 0 0 0 0 0 127 0" result="hardAlpha"/>
<feOffset dy="1"/>
<feComposite in2="hardAlpha" operator="out"/>
<feColorMatrix type="matrix" values="0 0 0 0 0 0 0 0 0 0 0 0 0 0 0 0 0 0 1 0"/>
<feBlend mode="normal" in2="BackgroundImageFix" result="effect1_dropShadow_4420_17015"/>
<feBlend mode="normal" in="SourceGraphic" in2="effect1_dropShadow_4420_17015" result="shape"/>
</filter>
<linearGradient id="paint0_linear_4420_17015" x1="12" y1="0" x2="12" y2="24" gradientUnits="userSpaceOnUse">
<stop stop-color="#1E7ADE"/>
<stop offset="1" stop-color="#8451F0"/>
</linearGradient>
<linearGradient id="paint1_linear_4420_17015" x1="12" y1="0" x2="12" y2="24" gradientUnits="userSpaceOnUse">
<stop stop-color="#FFEE53"/>
<stop offset="1" stop-color="#E39600"/>
</linearGradient>
<linearGradient id="paint2_linear_4420_17015" x1="12" y1="0" x2="12" y2="24" gradientUnits="userSpaceOnUse">
<stop stop-color="#6BEEDE"/>
<stop offset="1" stop-color="#00B1D8"/>
</linearGradient>
<linearGradient id="paint3_linear_4420_17015" x1="12" y1="0" x2="12" y2="24" gradientUnits="userSpaceOnUse">
<stop stop-color="#838383"/>
<stop offset="1" stop-color="#131313"/>
</linearGradient>
<linearGradient id="paint4_linear_4420_17015" x1="4" y1="12.6667" x2="5.33333" y2="16.3333" gradientUnits="userSpaceOnUse">
<stop offset="0.265" stop-color="white"/>
<stop offset="1" stop-color="#ECECEC" stop-opacity="0.5"/>
</linearGradient>
<linearGradient id="paint5_linear_4420_17015" x1="4.5" y1="6.66667" x2="5.61348" y2="10.4943" gradientUnits="userSpaceOnUse">
<stop offset="0.265" stop-color="white"/>
<stop offset="1" stop-color="#ECECEC" stop-opacity="0.5"/>
</linearGradient>
<linearGradient id="paint6_linear_4420_17015" x1="20.5" y1="6.66667" x2="21.6135" y2="10.4943" gradientUnits="userSpaceOnUse">
<stop offset="0.265" stop-color="white"/>
<stop offset="1" stop-color="#ECECEC" stop-opacity="0.5"/>
</linearGradient>
<linearGradient id="paint7_linear_4420_17015" x1="20" y1="12.6667" x2="21.3333" y2="16.3333" gradientUnits="userSpaceOnUse">
<stop offset="0.265" stop-color="white"/>
<stop offset="1" stop-color="#ECECEC" stop-opacity="0.5"/>
</linearGradient>
<linearGradient id="paint8_linear_4420_17015" x1="12" y1="12.6667" x2="13.3333" y2="16.3333" gradientUnits="userSpaceOnUse">
<stop offset="0.265" stop-color="white"/>
<stop offset="1" stop-color="#ECECEC" stop-opacity="0.5"/>
</linearGradient>
<clipPath id="clip0_4420_17015">
<rect width="24" height="24" fill="white"/>
</clipPath>
</defs>
</svg>
