<svg width="24" height="24" viewBox="0 0 24 24" fill="currentColor" xmlns="http://www.w3.org/2000/svg">
<g id="line-chart-dots-square">
<path id="Vector" opacity="0.4" d="M6.375 21H17.625C19.875 21 21 19.875 21 17.625V6.375C21 4.125 19.875 3 17.625 3H6.375C4.125 3 3 4.125 3 6.375V17.625C3 19.875 4.125 21 6.375 21Z" fill-opacity="1"/>
<path id="Vector_2" d="M17.02 8.83301H17.01C16.182 8.83301 15.515 9.50401 15.515 10.333C15.515 10.462 15.537 10.5851 15.567 10.7051L14.055 12.217C13.936 12.187 13.814 12.166 13.686 12.166H13.676C13.54 12.166 13.41 12.1901 13.285 12.2241L11.793 10.7319C11.828 10.6039 11.853 10.472 11.853 10.333C11.853 9.50401 11.182 8.83301 10.353 8.83301H10.343C9.51502 8.83301 8.84802 9.50401 8.84802 10.333C8.84802 10.462 8.86902 10.5851 8.90002 10.7051L7.38803 12.217C7.26903 12.187 7.14704 12.166 7.01904 12.166H7.00903C6.18103 12.166 5.51404 12.837 5.51404 13.666C5.51404 14.495 6.19004 15.166 7.01904 15.166C7.84804 15.166 8.51904 14.495 8.51904 13.666C8.51904 13.527 8.49405 13.3951 8.45905 13.2671L9.95404 11.7729C10.082 11.8079 10.214 11.833 10.353 11.833C10.481 11.833 10.603 11.812 10.721 11.782L12.233 13.293C12.202 13.413 12.181 13.536 12.181 13.666C12.181 14.495 12.857 15.166 13.686 15.166C14.515 15.166 15.186 14.495 15.186 13.666C15.186 13.527 15.161 13.3951 15.126 13.2671L16.621 11.772C16.749 11.808 16.881 11.833 17.02 11.833C17.849 11.833 18.52 11.162 18.52 10.333C18.52 9.50401 17.849 8.83301 17.02 8.83301Z" fill-opacity="1"/>
</g>
</svg>
