<svg
    width="24"
    height="24"
    viewBox="0 0 24 24"
    fill="none"
    xmlns="http://www.w3.org/2000/svg"
  >
    <path
      opacity="0.4"
      d="M14.9998 15.75C14.8078 15.75 14.6158 15.6771 14.4698 15.5301L8.99978 10.0601L3.52978 15.5301C3.23678 15.8231 2.76177 15.8231 2.46877 15.5301C2.17577 15.2371 2.17577 14.762 2.46877 14.469L8.46877 8.46902C8.76177 8.17602 9.23678 8.17602 9.52978 8.46902L14.9998 13.939L20.4698 8.46902C20.7628 8.17602 21.2378 8.17602 21.5308 8.46902C21.8238 8.76202 21.8238 9.23705 21.5308 9.53005L15.5308 15.5301C15.3838 15.6771 15.1918 15.75 14.9998 15.75Z"
      fill="#1E4620"
      fill-opacity="0.4"
    />
    <path
      d="M21.0197 11C19.9157 11 19.0146 10.104 19.0146 9C19.0146 7.896 19.9046 7 21.0096 7H21.0197C22.1237 7 23.0197 7.896 23.0197 9C23.0197 10.104 22.1247 11 21.0197 11Z"
      fill="#1E4620"
    />
    <path
      d="M9.02014 11C7.91614 11 7.01514 10.104 7.01514 9C7.01514 7.896 7.90513 7 9.01013 7H9.02014C10.1241 7 11.0201 7.896 11.0201 9C11.0201 10.104 10.1251 11 9.02014 11Z"
      fill="#1E4620"
    />
    <path
      d="M15.0201 17C13.9161 17 13.0151 16.104 13.0151 15C13.0151 13.896 13.9051 13 15.0101 13H15.0201C16.1241 13 17.0201 13.896 17.0201 15C17.0201 16.104 16.1251 17 15.0201 17Z"
      fill="#1E4620"
    />
    <path
      d="M3.02014 17C1.91614 17 1.01514 16.104 1.01514 15C1.01514 13.896 1.90513 13 3.01013 13H3.02014C4.12414 13 5.02014 13.896 5.02014 15C5.02014 16.104 4.12514 17 3.02014 17Z"
      fill="#1E4620"
    />
  </svg>