<svg
    width="20"
    height="20"
    viewBox="0 0 24 24"
    fill="currentColor"
    xmlns="http://www.w3.org/2000/svg"
  >
    <path
      opacity="0.4"
      d="M4.01965 14C2.91565 14 2.01465 13.104 2.01465 12C2.01465 10.896 2.90464 10 4.00964 10H4.01965C5.12365 10 6.01965 10.896 6.01965 12C6.01965 13.104 5.12465 14 4.01965 14Z"
      fill-opacity="0.56"
    />
    <path
      d="M12.0197 14C10.9157 14 10.0146 13.104 10.0146 12C10.0146 10.896 10.9046 10 12.0096 10H12.0197C13.1237 10 14.0197 10.896 14.0197 12C14.0197 13.104 13.1247 14 12.0197 14Z"
      fill-opacity="0.56"
    />
    <path
      opacity="0.4"
      d="M20.0197 14C18.9157 14 18.0146 13.104 18.0146 12C18.0146 10.896 18.9046 10 20.0096 10H20.0197C21.1237 10 22.0197 10.896 22.0197 12C22.0197 13.104 21.1247 14 20.0197 14Z"
      fill-opacity="0.56"
    />
  </svg>