<svg width="24" height="24" viewBox="0 0 24 24" fill="none" xmlns="http://www.w3.org/2000/svg">
<!-- <g clip-path="url(#clip0_4420_17214)"> -->
<mask id="mask0_4420_17214" style="mask-type:alpha" maskUnits="userSpaceOnUse" x="0" y="0" width="24" height="24">
<rect width="24" height="24" rx="8" fill="url(#paint0_linear_4420_17214)"/>
</mask>
<!-- <g mask="url(#mask0_4420_17214)"> -->
<rect width="24" height="24" rx="8" fill="url(#paint1_linear_4420_17214)"/>
<rect width="24" height="24" rx="8" fill="url(#paint2_linear_4420_17214)"/>
<rect width="24" height="24" rx="8" fill="url(#paint3_linear_4420_17214)"/>
<rect width="24" height="24" rx="8" fill="url(#paint4_linear_4420_17214)"/>
<path d="M5.875 12C5.875 13.0355 5.03553 13.875 4 13.875C2.96447 13.875 2.125 13.0355 2.125 12C2.125 10.9645 2.96447 10.125 4 10.125C5.03553 10.125 5.875 10.9645 5.875 12Z" fill="url(#paint5_linear_4420_17214)" stroke="white" stroke-width="0.25"/>
<path fill-rule="evenodd" clip-rule="evenodd" d="M5.93699 12.5C5.71497 13.3626 4.93192 14 4 14C3.06808 14 2.28503 13.3626 2.06301 12.5C2.02188 12.6598 2 12.8274 2 13C2 14.1046 2.89543 15 4 15C5.10457 15 6 14.1046 6 13C6 12.8273 5.97812 12.6598 5.93699 12.5Z" fill="#205E05"/>
<rect opacity="0.5" x="5" y="11" width="11" height="2" fill="white"/>
<path d="M21.963 12C21.637 15.2157 18.8669 17.7272 15.4978 17.7272C12.1287 17.7272 9.35855 15.2157 9.03257 12C9.01135 12.2093 9.00049 12.4216 9.00049 12.6364C9.00049 16.1509 11.9094 19 15.4978 19C19.0861 19 21.9951 16.1509 21.9951 12.6364C21.9951 12.4216 21.9842 12.2093 21.963 12Z" fill="#205E05"/>
<path d="M21.5779 11.3636C21.5779 14.6399 18.8637 17.3105 15.4973 17.3105C12.1308 17.3105 9.41667 14.6399 9.41667 11.3636C9.41667 8.08733 12.1308 5.41667 15.4973 5.41667C18.8637 5.41667 21.5779 8.08733 21.5779 11.3636Z" fill="url(#paint6_linear_4420_17214)"/>
<path d="M21.5779 11.3636C21.5779 14.6399 18.8637 17.3105 15.4973 17.3105C12.1308 17.3105 9.41667 14.6399 9.41667 11.3636C9.41667 8.08733 12.1308 5.41667 15.4973 5.41667C18.8637 5.41667 21.5779 8.08733 21.5779 11.3636Z" fill="url(#paint7_radial_4420_17214)" fill-opacity="0.2" style="mix-blend-mode:plus-lighter"/>
<path d="M21.5779 11.3636C21.5779 14.6399 18.8637 17.3105 15.4973 17.3105C12.1308 17.3105 9.41667 14.6399 9.41667 11.3636C9.41667 8.08733 12.1308 5.41667 15.4973 5.41667C18.8637 5.41667 21.5779 8.08733 21.5779 11.3636Z" stroke="url(#paint8_linear_4420_17214)" stroke-width="0.833333"/>
<path d="M16.5362 7.29112C16.5362 6.7288 16.0708 6.27295 15.4967 6.27295C14.9225 6.27295 14.4571 6.7288 14.4571 7.29112V10.3456H11.3384C10.7643 10.3456 10.2988 10.8015 10.2988 11.3638C10.2988 11.9261 10.7643 12.382 11.3384 12.382H14.4571V15.4365C14.4571 15.9988 14.9225 16.4547 15.4967 16.4547C16.0708 16.4547 16.5362 15.9988 16.5362 15.4365V12.382H19.6549C20.2291 12.382 20.6945 11.9261 20.6945 11.3638C20.6945 10.8015 20.2291 10.3456 19.6549 10.3456L16.5362 10.3456V7.29112Z" fill="#205E05"/>
<!-- </g> -->
<!-- </g> -->
<defs>
<linearGradient id="paint0_linear_4420_17214" x1="12" y1="0" x2="12" y2="24" gradientUnits="userSpaceOnUse">
<stop stop-color="#1E7ADE"/>
<stop offset="1" stop-color="#8451F0"/>
</linearGradient>
<linearGradient id="paint1_linear_4420_17214" x1="12" y1="0" x2="12" y2="24" gradientUnits="userSpaceOnUse">
<stop stop-color="#72C2FC"/>
<stop offset="1" stop-color="#6D1398"/>
</linearGradient>
<linearGradient id="paint2_linear_4420_17214" x1="12" y1="0" x2="12" y2="24" gradientUnits="userSpaceOnUse">
<stop stop-color="#FFAE12"/>
<stop offset="1" stop-color="#FF5353"/>
</linearGradient>
<linearGradient id="paint3_linear_4420_17214" x1="12" y1="0" x2="12" y2="24" gradientUnits="userSpaceOnUse">
<stop stop-color="#6BEEDE"/>
<stop offset="1" stop-color="#00B1D8"/>
</linearGradient>
<linearGradient id="paint4_linear_4420_17214" x1="12" y1="0" x2="12" y2="24" gradientUnits="userSpaceOnUse">
<stop stop-color="#BAEC2D"/>
<stop offset="1" stop-color="#1A6F05"/>
</linearGradient>
<linearGradient id="paint5_linear_4420_17214" x1="4" y1="10.6667" x2="5.33333" y2="14.3333" gradientUnits="userSpaceOnUse">
<stop offset="0.265" stop-color="white"/>
<stop offset="1" stop-color="#ECECEC" stop-opacity="0.5"/>
</linearGradient>
<linearGradient id="paint6_linear_4420_17214" x1="14.4144" y1="11.3636" x2="19.6965" y2="4.89197" gradientUnits="userSpaceOnUse">
<stop stop-color="white" stop-opacity="0.8"/>
<stop offset="1" stop-color="#CCCCCC" stop-opacity="0.5"/>
</linearGradient>
<radialGradient id="paint7_radial_4420_17214" cx="0" cy="0" r="1" gradientUnits="userSpaceOnUse" gradientTransform="translate(15.4973 14.5454) rotate(90) scale(6.36359 6.49728)">
<stop stop-color="#FFB800"/>
<stop offset="0.83" stop-color="#ECC767" stop-opacity="0"/>
</radialGradient>
<linearGradient id="paint8_linear_4420_17214" x1="15.4973" y1="5" x2="15.4973" y2="17.7272" gradientUnits="userSpaceOnUse">
<stop stop-color="white"/>
<stop offset="1" stop-color="#E7FFE8" stop-opacity="0"/>
</linearGradient>
<clipPath id="clip0_4420_17214">
<rect width="24" height="24" fill="white"/>
</clipPath>
</defs>
</svg>
