<svg width="18" height="18" viewBox="0 0 18 18" fill="currentColor" xmlns="http://www.w3.org/2000/svg">
<g id="plus-square">
<path id="Vector" opacity="0.4" d="M4.78125 15.75H13.2188C14.9062 15.75 15.75 14.9062 15.75 13.2188V4.78125C15.75 3.09375 14.9062 2.25 13.2188 2.25H4.78125C3.09375 2.25 2.25 3.09375 2.25 4.78125V13.2188C2.25 14.9062 3.09375 15.75 4.78125 15.75Z"/>
<path id="Vector_2" d="M11.625 8.4375H9.5625V6.375C9.5625 6.0645 9.3105 5.8125 9 5.8125C8.6895 5.8125 8.4375 6.0645 8.4375 6.375V8.4375H6.375C6.0645 8.4375 5.8125 8.6895 5.8125 9C5.8125 9.3105 6.0645 9.5625 6.375 9.5625H8.4375V11.625C8.4375 11.9355 8.6895 12.1875 9 12.1875C9.3105 12.1875 9.5625 11.9355 9.5625 11.625V9.5625H11.625C11.9355 9.5625 12.1875 9.3105 12.1875 9C12.1875 8.6895 11.9355 8.4375 11.625 8.4375Z"/>
</g>
</svg>
