<svg width="24" height="24" viewBox="0 0 24 24" fill="none" xmlns="http://www.w3.org/2000/svg">
<g clip-path="url(#clip0_1888_113153)">
<mask id="mask0_1888_113153" style="mask-type:alpha" maskUnits="userSpaceOnUse" x="0" y="0" width="24" height="24">
<rect width="24" height="24" rx="8" fill="url(#paint0_linear_1888_113153)"/>
</mask>
<g mask="url(#mask0_1888_113153)">
<rect width="24" height="24" rx="8" fill="url(#paint1_linear_1888_113153)"/>
<rect width="24" height="24" rx="8" fill="url(#paint2_radial_1888_113153)" fill-opacity="0.2" style="mix-blend-mode:hard-light"/>
<path d="M7.58955 17H5L8.94571 6H12.0599L16 17H13.4105L10.5474 8.51367H10.4581L7.58955 17ZM7.4277 12.6763H13.5444V14.4917H7.4277V12.6763Z" fill="#383838"/>
<g filter="url(#filter0_d_1888_113153)">
<path d="M16 3H18V4V19V20H16V19V4V3Z" fill="#D9D9D9"/>
<path d="M16 3H18V4V19V20H16V19V4V3Z" fill="url(#paint3_linear_1888_113153)"/>
<path d="M16 3H18V4V19V20H16V19V4V3Z" fill="url(#paint4_linear_1888_113153)"/>
<path d="M18 19V20H19V19H18Z" fill="#D9D9D9"/>
<path d="M18 19V20H19V19H18Z" fill="url(#paint5_linear_1888_113153)"/>
<path d="M18 19V20H19V19H18Z" fill="url(#paint6_linear_1888_113153)"/>
<path d="M15 20H16V19H15V20Z" fill="#D9D9D9"/>
<path d="M15 20H16V19H15V20Z" fill="url(#paint7_linear_1888_113153)"/>
<path d="M15 20H16V19H15V20Z" fill="url(#paint8_linear_1888_113153)"/>
<path d="M16 3H15V4H15.75H16V3Z" fill="#D9D9D9"/>
<path d="M16 3H15V4H15.75H16V3Z" fill="url(#paint9_linear_1888_113153)"/>
<path d="M16 3H15V4H15.75H16V3Z" fill="url(#paint10_linear_1888_113153)"/>
<path d="M19 4V3H18V4H19Z" fill="#D9D9D9"/>
<path d="M19 4V3H18V4H19Z" fill="url(#paint11_linear_1888_113153)"/>
<path d="M19 4V3H18V4H19Z" fill="url(#paint12_linear_1888_113153)"/>
</g>
</g>
</g>
<defs>
<filter id="filter0_d_1888_113153" x="15" y="3" width="4" height="18" filterUnits="userSpaceOnUse" color-interpolation-filters="sRGB">
<feFlood flood-opacity="0" result="BackgroundImageFix"/>
<feColorMatrix in="SourceAlpha" type="matrix" values="0 0 0 0 0 0 0 0 0 0 0 0 0 0 0 0 0 0 127 0" result="hardAlpha"/>
<feOffset dy="1"/>
<feComposite in2="hardAlpha" operator="out"/>
<feColorMatrix type="matrix" values="0 0 0 0 0.220833 0 0 0 0 0.220833 0 0 0 0 0.220833 0 0 0 1 0"/>
<feBlend mode="normal" in2="BackgroundImageFix" result="effect1_dropShadow_1888_113153"/>
<feBlend mode="normal" in="SourceGraphic" in2="effect1_dropShadow_1888_113153" result="shape"/>
</filter>
<linearGradient id="paint0_linear_1888_113153" x1="12" y1="0" x2="12" y2="24" gradientUnits="userSpaceOnUse">
<stop stop-color="#1E7ADE"/>
<stop offset="1" stop-color="#8451F0"/>
</linearGradient>
<linearGradient id="paint1_linear_1888_113153" x1="12" y1="0" x2="12" y2="24" gradientUnits="userSpaceOnUse">
<stop offset="0.4" stop-color="#ECECEC"/>
<stop offset="1" stop-color="#B8BCBF"/>
</linearGradient>
<radialGradient id="paint2_radial_1888_113153" cx="0" cy="0" r="1" gradientUnits="userSpaceOnUse" gradientTransform="translate(12 12) rotate(90) scale(12)">
<stop offset="0.39" stop-color="#E1E1E1"/>
<stop offset="1" stop-color="white" stop-opacity="0"/>
</radialGradient>
<linearGradient id="paint3_linear_1888_113153" x1="16.8298" y1="2" x2="14.0621" y2="2.73036" gradientUnits="userSpaceOnUse">
<stop stop-color="#72C2FC"/>
<stop offset="1" stop-color="#6D1398"/>
</linearGradient>
<linearGradient id="paint4_linear_1888_113153" x1="17" y1="2" x2="17" y2="20" gradientUnits="userSpaceOnUse">
<stop stop-color="#FF8383"/>
<stop offset="1" stop-color="#D71D1D"/>
</linearGradient>
<linearGradient id="paint5_linear_1888_113153" x1="16.8298" y1="2" x2="14.0621" y2="2.73036" gradientUnits="userSpaceOnUse">
<stop stop-color="#72C2FC"/>
<stop offset="1" stop-color="#6D1398"/>
</linearGradient>
<linearGradient id="paint6_linear_1888_113153" x1="17" y1="2" x2="17" y2="20" gradientUnits="userSpaceOnUse">
<stop stop-color="#FF8383"/>
<stop offset="1" stop-color="#D71D1D"/>
</linearGradient>
<linearGradient id="paint7_linear_1888_113153" x1="16.8298" y1="2" x2="14.0621" y2="2.73036" gradientUnits="userSpaceOnUse">
<stop stop-color="#72C2FC"/>
<stop offset="1" stop-color="#6D1398"/>
</linearGradient>
<linearGradient id="paint8_linear_1888_113153" x1="17" y1="2" x2="17" y2="20" gradientUnits="userSpaceOnUse">
<stop stop-color="#FF8383"/>
<stop offset="1" stop-color="#D71D1D"/>
</linearGradient>
<linearGradient id="paint9_linear_1888_113153" x1="16.8298" y1="2" x2="14.0621" y2="2.73036" gradientUnits="userSpaceOnUse">
<stop stop-color="#72C2FC"/>
<stop offset="1" stop-color="#6D1398"/>
</linearGradient>
<linearGradient id="paint10_linear_1888_113153" x1="17" y1="2" x2="17" y2="20" gradientUnits="userSpaceOnUse">
<stop stop-color="#FF8383"/>
<stop offset="1" stop-color="#D71D1D"/>
</linearGradient>
<linearGradient id="paint11_linear_1888_113153" x1="16.8298" y1="2" x2="14.0621" y2="2.73036" gradientUnits="userSpaceOnUse">
<stop stop-color="#72C2FC"/>
<stop offset="1" stop-color="#6D1398"/>
</linearGradient>
<linearGradient id="paint12_linear_1888_113153" x1="17" y1="2" x2="17" y2="20" gradientUnits="userSpaceOnUse">
<stop stop-color="#FF8383"/>
<stop offset="1" stop-color="#D71D1D"/>
</linearGradient>
<clipPath id="clip0_1888_113153">
<rect width="24" height="24" fill="white"/>
</clipPath>
</defs>
</svg>
