<svg width="24" height="24" viewBox="0 0 24 24" fill="none" xmlns="http://www.w3.org/2000/svg">
<!-- <g clip-path="url(#clip0_4969_8745)"> -->
<rect width="24" height="24" rx="8" fill="url(#paint0_linear_4969_8745)"/>
<path d="M3.66663 16.1665L3.66663 6.1665C3.66663 4.78579 4.78591 3.6665 6.16662 3.6665L17 3.6665C18.3807 3.6665 19.5 4.78579 19.5 6.1665V16.1665C19.5 17.5472 18.3807 18.6665 17 18.6665H6.16663C4.78591 18.6665 3.66663 17.5472 3.66663 16.1665Z" fill="url(#paint1_linear_4969_8745)"/>
<path d="M3.66663 16.1665L3.66663 6.1665C3.66663 4.78579 4.78591 3.6665 6.16662 3.6665L17 3.6665C18.3807 3.6665 19.5 4.78579 19.5 6.1665V16.1665C19.5 17.5472 18.3807 18.6665 17 18.6665H6.16663C4.78591 18.6665 3.66663 17.5472 3.66663 16.1665Z" fill="url(#paint2_linear_4969_8745)"/>
<!-- <g filter="url(#filter0_d_4969_8745)"> -->
<path d="M5.33337 17.8335V7.8335C5.33337 6.45278 6.45266 5.3335 7.83337 5.3335H17.8334C19.2141 5.3335 20.3334 6.45278 20.3334 7.8335V17.8335C20.3334 19.2142 19.2141 20.3335 17.8334 20.3335H7.83337C6.45266 20.3335 5.33337 19.2142 5.33337 17.8335Z" fill="url(#paint3_linear_4969_8745)" shape-rendering="crispEdges"/>
<path d="M5.75004 17.8335V7.8335C5.75004 6.6829 6.68278 5.75016 7.83337 5.75016H17.8334C18.984 5.75016 19.9167 6.6829 19.9167 7.8335V17.8335C19.9167 18.9841 18.984 19.9168 17.8334 19.9168H7.83337C6.68278 19.9168 5.75004 18.9841 5.75004 17.8335Z" stroke="url(#paint4_linear_4969_8745)" stroke-width="0.833333" shape-rendering="crispEdges"/>
<!-- </g> -->
<path d="M10.3335 9.5L17.0002 9.5" stroke="#1E7ADE" stroke-width="0.833333" stroke-linecap="round"/>
<path d="M10.3336 11.7222L17.0003 11.7222" stroke="#1E7ADE" stroke-width="0.833333" stroke-linecap="round"/>
<path d="M10.3336 13.9443L17.0003 13.9443" stroke="#1E7ADE" stroke-width="0.833333" stroke-linecap="round"/>
<path d="M10.3336 16.1665L17.0003 16.1665" stroke="#1E7ADE" stroke-width="0.833333" stroke-linecap="round"/>
<!-- <g filter="url(#filter1_d_4969_8745)"> -->
<!-- <g filter="url(#filter2_d_4969_8745)"> -->
<circle cx="16.1666" cy="16.1665" r="5.00001" fill="url(#paint5_linear_4969_8745)"/>
<circle cx="16.1666" cy="16.1665" r="5.00001" fill="url(#paint6_radial_4969_8745)" fill-opacity="0.2" style="mix-blend-mode:plus-lighter"/>
<circle cx="16.1666" cy="16.1665" r="4.58334" stroke="url(#paint7_linear_4969_8745)" stroke-width="0.833333"/>
<!-- </g> -->
<path d="M16.1665 16.1667L16.1665 13.3096" stroke="#1E7ADE" stroke-width="0.833333" stroke-linecap="round"/>
<path d="M16.1665 16.1665H17.9522" stroke="#1E7ADE" stroke-width="0.833333" stroke-linecap="round"/>
<!-- </g> -->
<!-- </g> -->
<defs>
<filter id="filter0_d_4969_8745" x="4.50004" y="5.3335" width="16.6667" height="16.6667" filterUnits="userSpaceOnUse" color-interpolation-filters="sRGB">
<feFlood flood-opacity="0" result="BackgroundImageFix"/>
<feColorMatrix in="SourceAlpha" type="matrix" values="0 0 0 0 0 0 0 0 0 0 0 0 0 0 0 0 0 0 127 0" result="hardAlpha"/>
<feOffset dy="0.833333"/>
<feGaussianBlur stdDeviation="0.416667"/>
<feComposite in2="hardAlpha" operator="out"/>
<feColorMatrix type="matrix" values="0 0 0 0 0.0982986 0 0 0 0 0.358328 0 0 0 0 0.620833 0 0 0 1 0"/>
<feBlend mode="normal" in2="BackgroundImageFix" result="effect1_dropShadow_4969_8745"/>
<feBlend mode="normal" in="SourceGraphic" in2="effect1_dropShadow_4969_8745" result="shape"/>
</filter>
<filter id="filter1_d_4969_8745" x="11.1666" y="11.1665" width="10" height="10.4167" filterUnits="userSpaceOnUse" color-interpolation-filters="sRGB">
<feFlood flood-opacity="0" result="BackgroundImageFix"/>
<feColorMatrix in="SourceAlpha" type="matrix" values="0 0 0 0 0 0 0 0 0 0 0 0 0 0 0 0 0 0 127 0" result="hardAlpha"/>
<feOffset dy="0.416667"/>
<feComposite in2="hardAlpha" operator="out"/>
<feColorMatrix type="matrix" values="0 0 0 0 0 0 0 0 0 0 0 0 0 0 0 0 0 0 0.25 0"/>
<feBlend mode="normal" in2="BackgroundImageFix" result="effect1_dropShadow_4969_8745"/>
<feBlend mode="normal" in="SourceGraphic" in2="effect1_dropShadow_4969_8745" result="shape"/>
</filter>
<filter id="filter2_d_4969_8745" x="11.1666" y="11.1665" width="10" height="10.8333" filterUnits="userSpaceOnUse" color-interpolation-filters="sRGB">
<feFlood flood-opacity="0" result="BackgroundImageFix"/>
<feColorMatrix in="SourceAlpha" type="matrix" values="0 0 0 0 0 0 0 0 0 0 0 0 0 0 0 0 0 0 127 0" result="hardAlpha"/>
<feOffset dy="0.833333"/>
<feComposite in2="hardAlpha" operator="out"/>
<feColorMatrix type="matrix" values="0 0 0 0 0.0980392 0 0 0 0 0.360784 0 0 0 0 0.631373 0 0 0 1 0"/>
<feBlend mode="normal" in2="BackgroundImageFix" result="effect1_dropShadow_4969_8745"/>
<feBlend mode="normal" in="SourceGraphic" in2="effect1_dropShadow_4969_8745" result="shape"/>
</filter>
<linearGradient id="paint0_linear_4969_8745" x1="12" y1="0" x2="12" y2="24" gradientUnits="userSpaceOnUse">
<stop stop-color="#72C2FC"/>
<stop offset="1" stop-color="#6D1398"/>
</linearGradient>
<linearGradient id="paint1_linear_4969_8745" x1="12" y1="18.6665" x2="12.8034" y2="3.70967" gradientUnits="userSpaceOnUse">
<stop stop-color="#FC82FF" stop-opacity="0"/>
<stop offset="1" stop-color="#1E54DE" stop-opacity="0.5"/>
</linearGradient>
<linearGradient id="paint2_linear_4969_8745" x1="12" y1="18.6665" x2="12.8034" y2="3.70967" gradientUnits="userSpaceOnUse">
<stop stop-color="white" stop-opacity="0"/>
<stop offset="1" stop-color="white" stop-opacity="0.5"/>
</linearGradient>
<linearGradient id="paint3_linear_4969_8745" x1="5.33337" y1="5.3335" x2="18.6667" y2="20.3335" gradientUnits="userSpaceOnUse">
<stop stop-color="white" stop-opacity="0.9"/>
<stop offset="1" stop-color="white" stop-opacity="0.5"/>
</linearGradient>
<linearGradient id="paint4_linear_4969_8745" x1="12.8334" y1="5.3335" x2="12.8334" y2="20.3335" gradientUnits="userSpaceOnUse">
<stop stop-color="#FBF5FF"/>
<stop offset="1" stop-color="#F4E6FF" stop-opacity="0"/>
</linearGradient>
<linearGradient id="paint5_linear_4969_8745" x1="15.3333" y1="16.1665" x2="19.5" y2="11.1665" gradientUnits="userSpaceOnUse">
<stop stop-color="white" stop-opacity="0.8"/>
<stop offset="1" stop-color="#CCCCCC" stop-opacity="0.5"/>
</linearGradient>
<radialGradient id="paint6_radial_4969_8745" cx="0" cy="0" r="1" gradientUnits="userSpaceOnUse" gradientTransform="translate(16.1666 18.6665) rotate(90) scale(5)">
<stop stop-color="#FFB800"/>
<stop offset="0.83" stop-color="#ECC767" stop-opacity="0"/>
</radialGradient>
<linearGradient id="paint7_linear_4969_8745" x1="16.1666" y1="11.1665" x2="16.1666" y2="21.1665" gradientUnits="userSpaceOnUse">
<stop stop-color="white"/>
<stop offset="1" stop-color="#E7FFE8" stop-opacity="0"/>
</linearGradient>
<clipPath id="clip0_4969_8745">
<rect width="24" height="24" fill="white"/>
</clipPath>
</defs>
</svg>
