<svg
  width="24"
  height="24"
  viewBox="0 0 24 24"
  fill="currentColor"
  xmlns="http://www.w3.org/2000/svg"
>
  <path
    d="M14 15C13.744 15 13.488 14.902 13.293 14.707L11.293 12.707C11.105 12.519 11 12.265 11 12V8C11 7.448 11.447 7 12 7C12.553 7 13 7.448 13 8V11.5859L14.707 13.293C15.098 13.684 15.098 14.316 14.707 14.707C14.512 14.902 14.256 15 14 15Z"
  />
  <path
    opacity="0.4"
    d="M12.0263 2C9.35625 2 6.84937 3.07793 5.00037 4.92993V3C5.00037 2.448 4.55337 2 4.00037 2C3.44737 2 3.00037 2.448 3.00037 3V7C3.00037 7.552 3.44737 8 4.00037 8H8.00037C8.55337 8 9.00037 7.552 9.00037 7C9.00037 6.448 8.55337 6 8.00037 6H6.76136C8.19936 4.727 10.0603 4 12.0263 4C16.4223 4 20.0004 7.589 20.0004 12C20.0004 16.411 16.4233 20 12.0263 20C8.97125 20 6.24035 18.2991 4.89735 15.5601C4.65535 15.0641 4.05646 14.8581 3.55946 15.1021C3.06346 15.3451 2.85943 15.9439 3.10243 16.4399C4.78343 19.8699 8.20325 22 12.0263 22C17.5253 22 22.0004 17.514 22.0004 12C22.0004 6.486 17.5253 2 12.0263 2Z"
  />
</svg>
