<svg width="24" height="24" viewBox="0 0 24 24" fill="none" xmlns="http://www.w3.org/2000/svg">
<rect width="24" height="24" rx="8" fill="url(#paint0_linear_1727_90606)"/>
<path fill-rule="evenodd" clip-rule="evenodd" d="M20.8208 13C20.76 13.164 20.6838 13.3237 20.5921 13.4771C19.3651 15.5311 16.61 19 12 19C7.39004 19 4.635 15.5311 3.408 13.4771C3.31632 13.3237 3.24009 13.164 3.17931 13C2.87945 13.8089 2.95568 14.7204 3.408 15.4771C4.635 17.5311 7.39004 21 12 21C16.61 21 19.3651 17.5311 20.5921 15.4771C21.0444 14.7204 21.1206 13.8089 20.8208 13Z" fill="#383838"/>
<path d="M20.5921 13.4771C21.1361 12.5671 21.1361 11.4329 20.5921 10.5229C19.3651 8.46895 16.61 5 12 5C7.39004 5 4.635 8.46895 3.408 10.5229C2.864 11.4329 2.864 12.5671 3.408 13.4771C4.635 15.5311 7.39004 19 12 19C16.61 19 19.3651 15.5311 20.5921 13.4771Z" fill="url(#paint1_linear_1727_90606)"/>
<path fill-rule="evenodd" clip-rule="evenodd" d="M20.1628 13.2206L20.1629 13.2205C20.6125 12.4685 20.6125 11.5315 20.1629 10.7795L20.1628 10.7794C18.9576 8.76181 16.3325 5.5 12 5.5C7.66759 5.5 5.04247 8.76181 3.83724 10.7794L3.83716 10.7795C3.38761 11.5315 3.38761 12.4685 3.83716 13.2205L3.83724 13.2206C5.04247 15.2382 7.66759 18.5 12 18.5C16.3325 18.5 18.9576 15.2382 20.1628 13.2206ZM20.5921 13.4771C21.1361 12.5671 21.1361 11.4329 20.5921 10.5229C19.3651 8.46895 16.61 5 12 5C7.39004 5 4.635 8.46895 3.408 10.5229C2.864 11.4329 2.864 12.5671 3.408 13.4771C4.635 15.5311 7.39004 19 12 19C16.61 19 19.3651 15.5311 20.5921 13.4771Z" fill="white"/>
<path fill-rule="evenodd" clip-rule="evenodd" d="M21.0213 13.7335C21.6597 12.6655 21.6597 11.3345 21.0213 10.2665C19.7726 8.17609 16.8876 4.5 12 4.5C7.1126 4.5 4.22765 8.17593 2.97884 10.2664C2.3405 11.3343 2.3405 12.6657 2.97884 13.7336C4.22765 15.8241 7.1126 19.5 12 19.5C16.8876 19.5 19.7726 15.8239 21.0213 13.7335ZM20.5921 10.5229C21.1361 11.4329 21.1361 12.5671 20.5921 13.4771C19.3651 15.5311 16.61 19 12 19C7.39004 19 4.635 15.5311 3.408 13.4771C2.864 12.5671 2.864 11.4329 3.408 10.5229C4.635 8.46895 7.39004 5 12 5C16.61 5 19.3651 8.46895 20.5921 10.5229Z" fill="#909090"/>
<path d="M12 8C11.5817 8 11.1852 8.08231 10.8069 8.20117C11.0321 8.50974 11.168 8.88684 11.168 9.29827C11.168 10.3314 10.3314 11.168 9.29827 11.168C8.88684 11.168 8.51089 11.0309 8.20117 10.8069C8.08231 11.1863 8 11.5817 8 12C8 14.2091 9.79086 16 12 16C14.2091 16 16 14.2091 16 12C16 9.79086 14.2091 8 12 8Z" fill="url(#paint2_radial_1727_90606)"/>
<defs>
<linearGradient id="paint0_linear_1727_90606" x1="12" y1="0" x2="12" y2="24" gradientUnits="userSpaceOnUse">
<stop offset="0.4" stop-color="#ECECEC"/>
<stop offset="1" stop-color="#B8BCBF"/>
</linearGradient>
<linearGradient id="paint1_linear_1727_90606" x1="13" y1="19" x2="16.1786" y2="6.16329" gradientUnits="userSpaceOnUse">
<stop offset="0.4" stop-color="white"/>
<stop offset="1" stop-color="#ECECEC" stop-opacity="0.8"/>
</linearGradient>
<radialGradient id="paint2_radial_1727_90606" cx="0" cy="0" r="1" gradientUnits="userSpaceOnUse" gradientTransform="translate(10.8571 10.8571) rotate(48.3665) scale(6.88091)">
<stop stop-color="#72C2FC"/>
<stop offset="1" stop-color="#6D1398"/>
</radialGradient>
</defs>
</svg>
