<svg width="36" height="40" viewBox="0 0 36 40" fill="none" xmlns="http://www.w3.org/2000/svg">
<path d="M24.5241 10.9837C23.1997 9.3126 21.0949 8.77547 19.8278 9.78317C18.5608 10.7909 18.6044 12.96 19.9288 14.6403C21.2532 16.3205 23.3581 16.8485 24.6274 15.8408C25.8968 14.8331 25.8509 12.6616 24.5241 10.9929" fill="white"/>
<path d="M15.666 32.673C15.2629 32.672 14.8606 32.6366 14.4635 32.5674C11.4799 32.0601 10.1029 29.2276 9.46489 27.0722C9.59801 27.0423 9.65997 27.0263 9.46489 27.0722C9.22047 26.2478 9.05298 25.4025 8.96458 24.5472L8.91638 23.9114L0.631348 27.4326L0.720854 27.8067C1.24735 29.7533 2.06191 31.6102 3.13751 33.3157C5.46467 36.9724 8.62262 38.9051 12.2694 38.9051C16.5244 38.9051 18.8883 36.7612 20.1207 34.9639C20.9341 33.7806 21.4986 32.4445 21.78 31.0364L21.9544 29.9552L21.0639 30.5934C19.1201 31.9867 17.3552 32.6593 15.6683 32.6593L15.666 32.673ZM19.3748 34.4566C17.7683 36.8094 15.3746 38.0007 12.2763 38.0007C8.91868 38.0007 6.10957 36.27 3.9293 32.8544C3.36979 31.9715 2.88537 31.0431 2.48114 30.0792C3.82373 28.8718 3.55521 27.7241 3.36243 27.265L6.95873 25.7362C7.14233 26.2298 7.6197 27.2076 8.55148 27.2237C8.68566 27.7048 8.84578 28.1784 9.03113 28.6423C10.1488 31.3968 11.9734 33.0701 14.3097 33.4627C14.7575 33.5415 15.2114 33.5806 15.666 33.5797C17.2427 33.5797 18.8584 33.0678 20.5751 32.0165C20.288 32.8808 19.8842 33.7017 19.3748 34.4566Z" fill="white"/>
<path d="M12.1385 33.8851C11.342 33.5913 10.2839 33.1689 9.36803 33.4628C8.33971 33.7933 8.89519 35.0259 9.47592 35.4827C9.97971 35.8596 10.5813 36.0835 11.2089 36.1277C11.9893 36.2035 13.6145 35.9969 14.0758 35.2945C14.7346 34.296 13.3023 34.3189 12.1385 33.8851Z" fill="white"/>
<path d="M26.6024 6.10816C26.4377 6.10805 26.2734 6.09345 26.1113 6.06455C24.9018 5.86025 24.3349 4.70795 24.0779 3.8288C24.133 3.8288 24.1582 3.81044 24.0779 3.8288C23.9779 3.49469 23.9096 3.15193 23.8736 2.80504L23.853 2.54565L20.4839 3.97571L20.5206 4.1295C20.7341 4.92377 21.066 5.68134 21.5052 6.37672C22.4507 7.86187 23.7359 8.6492 25.2185 8.6492C26.949 8.6492 27.9106 7.77694 28.4132 7.0424C28.7439 6.55766 28.9734 6.01115 29.0879 5.4356L29.1591 4.99488L28.7965 5.25426C28.0047 5.82123 27.2863 6.09668 26.6024 6.09668V6.10816ZM28.0965 6.83581C27.4401 7.793 26.4693 8.27734 25.2093 8.27734C23.8438 8.27734 22.7009 7.57264 21.8127 6.18391C21.5864 5.82491 21.3899 5.44796 21.2252 5.05685C21.776 4.56334 21.6658 4.09507 21.5855 3.90914L23.0497 3.28708C23.1255 3.48908 23.3182 3.88618 23.6969 3.89307C23.7528 4.08762 23.8187 4.27916 23.8943 4.46693C24.3533 5.59169 25.09 6.27113 26.0401 6.43411C26.2228 6.4657 26.4078 6.48182 26.5932 6.48231C27.3043 6.46077 27.9952 6.24052 28.5876 5.84648C28.4704 6.19736 28.3051 6.5303 28.0965 6.83581Z" fill="white"/>
<path d="M25.164 6.60628C24.8449 6.48692 24.4111 6.31476 24.037 6.43413C23.6192 6.56726 23.8442 7.06996 24.0806 7.25589C24.2854 7.41176 24.5309 7.50503 24.7875 7.52445C25.1043 7.55659 25.7654 7.47166 25.9536 7.18703C26.2199 6.78074 25.6391 6.78992 25.164 6.61317" fill="white"/>
<path d="M26.0488 6.4317C25.0987 6.26872 24.3574 5.58928 23.9007 4.46452C23.8227 4.26711 23.7584 4.072 23.7056 3.89066C23.3269 3.89066 23.1319 3.48667 23.0584 3.28467L21.5942 3.90673C21.6745 4.09266 21.7847 4.56093 21.2339 5.05444C21.3981 5.44653 21.5946 5.82428 21.8214 6.18379C22.7096 7.57253 23.8525 8.27722 25.218 8.27722C26.478 8.27722 27.4488 7.79289 28.1052 6.83569C28.3138 6.53019 28.4791 6.19724 28.5963 5.84636C28.0033 6.24081 27.3116 6.46109 26.5997 6.4822C26.415 6.48161 26.2308 6.46549 26.0488 6.434V6.4317ZM25.9548 7.17771C25.7666 7.46235 25.1056 7.54728 24.7866 7.51514C24.5317 7.49628 24.2874 7.40555 24.082 7.25346C23.8525 7.06753 23.623 6.56483 24.0384 6.4317C24.4125 6.31234 24.844 6.48449 25.1653 6.60386C25.638 6.7806 26.221 6.76913 25.9548 7.17771Z" fill="#6DC594"/>
<path d="M26.4897 5.99795C26.3816 5.87473 26.2841 5.74267 26.1981 5.60314C25.5531 4.55872 26.0444 3.37198 26.5333 2.60072C26.5769 2.63286 26.5998 2.64663 26.5333 2.60072C26.7167 2.30364 26.9289 2.02532 27.1668 1.76977L27.3481 1.58385L24.0451 0L23.9556 0.128544C23.5006 0.812851 23.1516 1.56196 22.9204 2.35052C22.4292 4.04225 22.6908 5.52739 23.6687 6.64067C24.8163 7.93988 26.1017 8.08679 26.9809 7.97891C27.561 7.90952 28.1209 7.72287 28.6266 7.4303L29.0054 7.20076L28.5693 7.09976C27.6236 6.87022 26.9418 6.52361 26.4874 6.00713L26.4897 5.99795ZM26.9464 7.61393C25.7988 7.75166 24.7888 7.34307 23.9625 6.39736C23.0466 5.36671 22.8171 4.04454 23.2761 2.4607C23.3959 2.05231 23.5495 1.65459 23.7352 1.27167C24.4697 1.36119 24.7452 0.96867 24.8347 0.787332L26.2693 1.47596C26.166 1.66418 25.9962 2.07277 26.2418 2.3597C26.1317 2.52991 26.0313 2.70617 25.9411 2.88765C25.3971 3.97109 25.3764 4.97878 25.8837 5.79825C25.9798 5.95604 26.0896 6.10506 26.2119 6.24356C26.6978 6.76482 27.3207 7.13871 28.0092 7.32241C27.6673 7.46613 27.3075 7.56266 26.9395 7.60934" fill="white"/>
<path d="M25.1639 5.24753C25.0422 4.92846 24.8838 4.49004 24.5487 4.28804C24.17 4.0585 23.9427 4.56349 23.9588 4.86419C23.9798 5.11948 24.0738 5.36333 24.2297 5.56659C24.4156 5.82598 24.9183 6.2667 25.2534 6.21849C25.7354 6.15193 25.3429 5.72039 25.1639 5.24753Z" fill="white"/>
<path d="M25.8738 5.79827C25.3665 4.97881 25.3872 3.96193 25.9312 2.88767C26.0223 2.70666 26.1227 2.53045 26.2319 2.35972C25.9863 2.07279 26.1561 1.67109 26.2594 1.47598L24.8248 0.787354C24.7376 0.968692 24.4599 1.36121 23.7253 1.27169C23.5406 1.65504 23.3871 2.05268 23.2663 2.46072C22.8072 4.04457 23.0367 5.36673 23.9388 6.39279C24.772 7.3385 25.7751 7.74709 26.9228 7.60936C27.2907 7.56268 27.6505 7.46616 27.9924 7.32244C27.3039 7.13873 26.6811 6.76484 26.1952 6.24359C26.0729 6.10508 25.963 5.95606 25.8669 5.79827H25.8738ZM25.2449 6.21834C24.9075 6.26654 24.4071 5.82582 24.2211 5.56643C24.0702 5.36162 23.981 5.1179 23.9641 4.86403C23.948 4.56333 24.1752 4.06293 24.554 4.28788C24.8891 4.48988 25.0475 4.92831 25.1691 5.24737C25.3482 5.72023 25.7407 6.15177 25.2586 6.21834" fill="#6DC594"/>
<path d="M5.95654 11.197C5.95654 11.197 16.8832 16.706 20.9017 24.5816C22.4876 27.692 22.7722 30.474 21.4204 33.7129C17.349 43.4661 6.67948 37.9112 6.67948 37.9112C6.67948 37.9112 11.2994 41.7124 18.9074 39.0589C21.4081 38.2206 23.6474 36.7452 25.4046 34.7779C29.9487 29.8933 36.2784 19.27 27.3393 5.94507H26.0839C26.0839 5.94507 30.5822 15.6364 26.0128 17.7344C21.5191 19.8003 9.90628 9.70039 9.90628 9.70039L5.95654 11.197Z" fill="white"/>
<path opacity="0.3" d="M14.3109 33.4628C11.9745 33.0657 10.15 31.3969 9.03232 28.6263C8.84728 28.1655 8.68716 27.695 8.55266 27.2169C7.62088 27.2009 7.14352 26.223 6.95992 25.7295L3.36361 27.2651C3.5564 27.7242 3.82262 28.8719 2.47314 30.0816C2.87738 31.0456 3.3618 31.9739 3.9213 32.8568C6.10158 36.2724 8.91069 38.0031 12.2683 38.0031C15.3666 38.0031 17.7534 36.8118 19.3668 34.459C19.879 33.7061 20.2859 32.8867 20.5763 32.0236C18.8596 33.0749 17.2439 33.5867 15.6672 33.5867C15.2126 33.5876 14.7587 33.5485 14.3109 33.4697V33.4628ZM14.0814 35.306C13.6224 36.0084 11.9952 36.2242 11.2149 36.1393C10.5874 36.095 9.98587 35.8711 9.48215 35.4942C8.90151 35.0352 8.34611 33.8048 9.37428 33.4743C10.2923 33.1805 11.3572 33.6028 12.1444 33.8966C13.308 34.3305 14.74 34.3075 14.0814 35.306Z" fill="white"/>
<path d="M24.4751 12.9255C24.4751 12.9255 24.1996 15.1314 21.8882 14.8216" stroke="#2FAC66" stroke-width="0.093731" stroke-miterlimit="10"/>
<path d="M21.8062 14.4106C21.8684 14.5241 21.9027 14.6507 21.9063 14.78C21.9099 14.9093 21.8827 15.0377 21.8268 15.1544" stroke="#2FAC66" stroke-width="0.093731" stroke-miterlimit="10"/>
<path d="M24.0771 12.7419C24.1668 12.835 24.2771 12.9055 24.3992 12.9478C24.5212 12.9901 24.6516 13.0029 24.7795 12.9853" stroke="#2FAC66" stroke-width="0.093731" stroke-miterlimit="10"/>
</svg>
