<svg width="24" height="24" viewBox="0 0 24 24" fill="none" xmlns="http://www.w3.org/2000/svg">
<g clip-path="url(#clip0_2298_110425)">
<mask id="mask0_2298_110425" style="mask-type:alpha" maskUnits="userSpaceOnUse" x="0" y="0" width="24" height="24">
<rect width="24" height="24" rx="8" fill="url(#paint0_linear_2298_110425)"/>
</mask>
<g mask="url(#mask0_2298_110425)">
<rect width="24" height="24" rx="8" fill="url(#paint1_linear_2298_110425)"/>
<rect width="24" height="24" rx="8" fill="url(#paint2_radial_2298_110425)" fill-opacity="0.2" style="mix-blend-mode:hard-light"/>
<path d="M4.08535 7C4.29127 7.5826 4.84689 8 5.5 8L18.5 8C19.1531 8 19.7087 7.5826 19.9146 7C19.9699 7.15639 20 7.32468 20 7.5C20 8.32843 19.3284 9 18.5 9L5.5 9C4.67157 9 4 8.32843 4 7.5C4 7.32468 4.03008 7.15639 4.08535 7Z" fill="#393939"/>
<path d="M5.5 8C4.67157 8 4 7.32843 4 6.5V6.5C4 5.67157 4.67157 5 5.5 5L18.5 5C19.3284 5 20 5.67157 20 6.5V6.5C20 7.32843 19.3284 8 18.5 8L5.5 8Z" fill="url(#paint3_linear_2298_110425)"/>
<path fill-rule="evenodd" clip-rule="evenodd" d="M18.5 5.5L5.5 5.5C4.94771 5.5 4.5 5.94772 4.5 6.5C4.5 7.05228 4.94772 7.5 5.5 7.5L18.5 7.5C19.0523 7.5 19.5 7.05228 19.5 6.5C19.5 5.94772 19.0523 5.5 18.5 5.5ZM4 6.5C4 7.32843 4.67157 8 5.5 8L18.5 8C19.3284 8 20 7.32843 20 6.5C20 5.67157 19.3284 5 18.5 5L5.5 5C4.67157 5 4 5.67157 4 6.5Z" fill="#8F0030"/>
<path d="M6.08535 11C6.29127 11.5826 6.84689 12 7.5 12L16.5 12C17.1531 12 17.7087 11.5826 17.9146 11C17.9699 11.1564 18 11.3247 18 11.5C18 12.3284 17.3284 13 16.5 13L7.5 13C6.67157 13 6 12.3284 6 11.5C6 11.3247 6.03008 11.1564 6.08535 11Z" fill="#393939"/>
<path d="M7.5 12C6.67157 12 6 11.3284 6 10.5V10.5C6 9.67157 6.67157 9 7.5 9L16.5 9C17.3284 9 18 9.67157 18 10.5V10.5C18 11.3284 17.3284 12 16.5 12L7.5 12Z" fill="url(#paint4_linear_2298_110425)"/>
<path fill-rule="evenodd" clip-rule="evenodd" d="M16.5 9.5L7.5 9.5C6.94772 9.5 6.5 9.94772 6.5 10.5C6.5 11.0523 6.94772 11.5 7.5 11.5L16.5 11.5C17.0523 11.5 17.5 11.0523 17.5 10.5C17.5 9.94772 17.0523 9.5 16.5 9.5ZM6 10.5C6 11.3284 6.67157 12 7.5 12L16.5 12C17.3284 12 18 11.3284 18 10.5C18 9.67157 17.3284 9 16.5 9L7.5 9C6.67157 9 6 9.67157 6 10.5Z" fill="#999999"/>
<path d="M9.08535 15C9.29127 15.5826 9.84689 16 10.5 16L13.5 16C14.1531 16 14.7087 15.5826 14.9146 15C14.9699 15.1564 15 15.3247 15 15.5C15 16.3284 14.3284 17 13.5 17L10.5 17C9.67157 17 9 16.3284 9 15.5C9 15.3247 9.03008 15.1564 9.08535 15Z" fill="#393939"/>
<path d="M10.5 16C9.67157 16 9 15.3284 9 14.5V14.5C9 13.6716 9.67157 13 10.5 13L13.5 13C14.3284 13 15 13.6716 15 14.5V14.5C15 15.3284 14.3284 16 13.5 16L10.5 16Z" fill="url(#paint5_linear_2298_110425)"/>
<path fill-rule="evenodd" clip-rule="evenodd" d="M13.5 13.5L10.5 13.5C9.94772 13.5 9.5 13.9477 9.5 14.5C9.5 15.0523 9.94772 15.5 10.5 15.5L13.5 15.5C14.0523 15.5 14.5 15.0523 14.5 14.5C14.5 13.9477 14.0523 13.5 13.5 13.5ZM9 14.5C9 15.3284 9.67157 16 10.5 16L13.5 16C14.3284 16 15 15.3284 15 14.5C15 13.6716 14.3284 13 13.5 13L10.5 13C9.67157 13 9 13.6716 9 14.5Z" fill="#999999"/>
<path d="M11.1338 18.5C11.3067 18.7989 11.6299 19 12 19C12.3701 19 12.6933 18.7989 12.8662 18.5C12.9513 18.6471 13 18.8179 13 19C13 19.5523 12.5523 20 12 20C11.4477 20 11 19.5523 11 19C11 18.8179 11.0487 18.6471 11.1338 18.5Z" fill="#393939"/>
<path d="M12 19C11.4477 19 11 18.5523 11 18V18C11 17.4477 11.4477 17 12 17V17C12.5523 17 13 17.4477 13 18V18C13 18.5523 12.5523 19 12 19V19Z" fill="url(#paint6_linear_2298_110425)"/>
<path fill-rule="evenodd" clip-rule="evenodd" d="M12 18.5C12.2761 18.5 12.5 18.2761 12.5 18C12.5 17.7239 12.2761 17.5 12 17.5C11.7239 17.5 11.5 17.7239 11.5 18C11.5 18.2761 11.7239 18.5 12 18.5ZM11 18C11 18.5523 11.4477 19 12 19C12.5523 19 13 18.5523 13 18C13 17.4477 12.5523 17 12 17C11.4477 17 11 17.4477 11 18Z" fill="#999999"/>
</g>
</g>
<defs>
<linearGradient id="paint0_linear_2298_110425" x1="12" y1="0" x2="12" y2="24" gradientUnits="userSpaceOnUse">
<stop stop-color="#1E7ADE"/>
<stop offset="1" stop-color="#8451F0"/>
</linearGradient>
<linearGradient id="paint1_linear_2298_110425" x1="12" y1="0" x2="12" y2="24" gradientUnits="userSpaceOnUse">
<stop offset="0.4" stop-color="#ECECEC"/>
<stop offset="1" stop-color="#B8BCBF"/>
</linearGradient>
<radialGradient id="paint2_radial_2298_110425" cx="0" cy="0" r="1" gradientUnits="userSpaceOnUse" gradientTransform="translate(12 12) rotate(90) scale(12)">
<stop offset="0.39" stop-color="#E1E1E1"/>
<stop offset="1" stop-color="white" stop-opacity="0"/>
</radialGradient>
<linearGradient id="paint3_linear_2298_110425" x1="4" y1="6.5" x2="20" y2="6.5" gradientUnits="userSpaceOnUse">
<stop stop-color="#FF83F3"/>
<stop offset="1" stop-color="#D71D54"/>
</linearGradient>
<linearGradient id="paint4_linear_2298_110425" x1="2.83779" y1="12.1765" x2="4.24996" y2="6.25985" gradientUnits="userSpaceOnUse">
<stop offset="0.17" stop-color="white"/>
<stop offset="1" stop-color="#ECECEC" stop-opacity="0.6"/>
</linearGradient>
<linearGradient id="paint5_linear_2298_110425" x1="7.4189" y1="16.1765" x2="9.85012" y2="11.0834" gradientUnits="userSpaceOnUse">
<stop offset="0.17" stop-color="white"/>
<stop offset="1" stop-color="#ECECEC" stop-opacity="0.6"/>
</linearGradient>
<linearGradient id="paint6_linear_2298_110425" x1="10.473" y1="19.1176" x2="12.5553" y2="16.9365" gradientUnits="userSpaceOnUse">
<stop offset="0.17" stop-color="white"/>
<stop offset="1" stop-color="#ECECEC" stop-opacity="0.6"/>
</linearGradient>
<clipPath id="clip0_2298_110425">
<rect width="24" height="24" fill="white"/>
</clipPath>
</defs>
</svg>
