<svg width="24" height="24" viewBox="0 0 24 24" fill="none" xmlns="http://www.w3.org/2000/svg">
<g clip-path="url(#clip0_2289_110132)">
<rect width="24" height="24" rx="8" fill="url(#paint0_linear_2289_110132)"/>
<rect width="24" height="24" rx="8" fill="url(#paint1_radial_2289_110132)" fill-opacity="0.2" style="mix-blend-mode:hard-light"/>
<path d="M15.8593 9C17.0173 9 17.9333 9.98043 17.8547 11.1358L17.3439 18.6421C17.2489 19.9726 16.5324 21 14.754 21H9.24604C7.46762 21 6.75107 19.9726 6.65611 18.6421L6.14533 11.1358C6.06672 9.98043 6.9827 9 8.14072 9H15.8593Z" fill="#7F0000" fill-opacity="0.5"/>
<path d="M15.8593 9C17.0173 9 17.9333 9.98043 17.8547 11.1358L17.3439 18.6421C17.2489 19.9726 16.5324 21 14.754 21H9.24604C7.46762 21 6.75107 19.9726 6.65611 18.6421L6.14533 11.1358C6.06672 9.98043 6.9827 9 8.14072 9H15.8593Z" fill="url(#paint2_linear_2289_110132)"/>
<path opacity="0.5" d="M9.5 -5.5L14.5 -5.5C15.8807 -5.5 17 -4.38071 17 -3V-0.543061C17 0.832055 15.8894 1.94901 14.5143 1.9569L9.51434 1.98558C8.12805 1.99353 7 0.871934 7 -0.514381L7 -3C7 -4.38071 8.11929 -5.5 9.5 -5.5Z" fill="url(#paint3_linear_2289_110132)"/>
<path d="M15.6925 7.83331C16.8505 7.83331 17.7665 8.81375 17.6878 9.96909L17.1953 17.2076C17.103 18.5011 16.4063 19.5 14.6773 19.5H9.32238C7.59336 19.5 6.89672 18.5011 6.80439 17.2076L6.31184 9.96909C6.23322 8.81375 7.14921 7.83331 8.30722 7.83331H15.6925Z" fill="url(#paint4_linear_2289_110132)"/>
<path d="M15.6925 7.83331C16.8505 7.83331 17.7665 8.81375 17.6878 9.96909L17.1953 17.2076C17.103 18.5011 16.4063 19.5 14.6773 19.5H9.32238C7.59336 19.5 6.89672 18.5011 6.80439 17.2076L6.31184 9.96909C6.23322 8.81375 7.14921 7.83331 8.30722 7.83331H15.6925Z" fill="url(#paint5_linear_2289_110132)"/>
<path fill-rule="evenodd" clip-rule="evenodd" d="M17.694 17.2432C17.6426 17.9641 17.4185 18.6654 16.9078 19.1882C16.3897 19.7187 15.641 20 14.6773 20H9.3224C8.35873 20 7.61007 19.7187 7.09196 19.1882C6.58126 18.6654 6.35714 17.9641 6.30568 17.2432L6.30556 17.2415L5.81301 10.003C5.71474 8.55886 6.85973 7.33331 8.30725 7.33331H15.6925C17.14 7.33331 18.285 8.55886 18.1867 10.003L17.694 17.2432ZM6.80441 17.2076L6.31186 9.96909C6.23324 8.81375 7.14923 7.83331 8.30725 7.83331H15.6925C16.8505 7.83331 17.7665 8.81375 17.6879 9.96909L17.1953 17.2076C17.103 18.5011 16.4063 19.5 14.6773 19.5H9.3224C7.59338 19.5 6.89674 18.5011 6.80441 17.2076Z" fill="#717171"/>
<path fill-rule="evenodd" clip-rule="evenodd" d="M16.1983 17.1364L16.6906 9.90126C16.7299 9.32359 16.2719 8.83337 15.6929 8.83337H8.30771C7.7287 8.83337 7.27071 9.32359 7.31002 9.90126L7.80234 17.1364C7.80238 17.137 7.80241 17.1375 7.80245 17.138C7.83821 17.6355 7.9816 17.9519 8.1655 18.1402C8.33476 18.3135 8.65669 18.5 9.32287 18.5H14.6778C15.344 18.5 15.6659 18.3135 15.8352 18.1402C16.019 17.9519 16.1624 17.6356 16.1982 17.1381C16.1982 17.1376 16.1983 17.137 16.1983 17.1364ZM17.1958 17.2076L17.6883 9.96915C17.7669 8.81381 16.851 7.83337 15.6929 7.83337H8.30771C7.14969 7.83337 6.23371 8.81381 6.31233 9.96915L6.80488 17.2076C6.8972 18.5012 7.59385 19.5 9.32287 19.5H14.6778C16.4068 19.5 17.1034 18.5012 17.1958 17.2076Z" fill="url(#paint6_linear_2289_110132)"/>
<path fill-rule="evenodd" clip-rule="evenodd" d="M10.7624 11.0222C10.9925 11.0222 11.179 11.2088 11.179 11.4389V16.4389C11.179 16.669 10.9925 16.8555 10.7624 16.8555C10.5323 16.8555 10.3457 16.669 10.3457 16.4389V11.4389C10.3457 11.2088 10.5323 11.0222 10.7624 11.0222ZM14.0957 11.0222C14.3258 11.0222 14.5124 11.2088 14.5124 11.4389V16.4389C14.5124 16.669 14.3258 16.8555 14.0957 16.8555C13.8656 16.8555 13.679 16.669 13.679 16.4389V11.4389C13.679 11.2088 13.8656 11.0222 14.0957 11.0222Z" fill="white"/>
<g style="mix-blend-mode:soft-light">
<path d="M17.1954 17.2076L17.688 9.96909C17.7666 8.81375 16.8506 7.83331 15.6926 7.83331H11.1667C11.1667 7.83331 14.9167 18.25 8.25 19.5H14.6775C16.4065 19.5 17.1031 18.5011 17.1954 17.2076Z" fill="url(#paint7_linear_2289_110132)"/>
</g>
<path d="M18.8571 7.5L15.2451 7.5C15.1654 7.33822 15.1037 7.15511 15.0377 6.95067L14.8646 6.41111C14.6897 5.86711 14.1986 5.5 13.6449 5.5L10.3551 5.5C9.80142 5.5 9.31029 5.86711 9.13543 6.41111L8.96228 6.95067C8.89628 7.15511 8.83458 7.33822 8.75486 7.5H5.14286C4.788 7.5 4.5 7.79867 4.5 8.16667C4.5 8.53467 4.788 8.83333 5.14286 8.83333H18.8571C19.212 8.83333 19.5 8.53467 19.5 8.16667C19.5 7.79867 19.212 7.5 18.8571 7.5Z" fill="#717171"/>
<path d="M18.8571 6.5H15.2451C15.1654 6.33822 15.1037 6.15511 15.0377 5.95067L14.8646 5.41111C14.6897 4.86711 14.1986 4.5 13.6449 4.5H10.3551C9.80142 4.5 9.31029 4.86711 9.13543 5.41111L8.96228 5.95067C8.89628 6.15511 8.83458 6.33822 8.75486 6.5H5.14286C4.788 6.5 4.5 6.79867 4.5 7.16667C4.5 7.53467 4.788 7.83333 5.14286 7.83333H18.8571C19.212 7.83333 19.5 7.53467 19.5 7.16667C19.5 6.79867 19.212 6.5 18.8571 6.5Z" fill="#800000"/>
<path d="M18.8571 6.5H15.2451C15.1654 6.33822 15.1037 6.15511 15.0377 5.95067L14.8646 5.41111C14.6897 4.86711 14.1986 4.5 13.6449 4.5H10.3551C9.80142 4.5 9.31029 4.86711 9.13543 5.41111L8.96228 5.95067C8.89628 6.15511 8.83458 6.33822 8.75486 6.5H5.14286C4.788 6.5 4.5 6.79867 4.5 7.16667C4.5 7.53467 4.788 7.83333 5.14286 7.83333H18.8571C19.212 7.83333 19.5 7.53467 19.5 7.16667C19.5 6.79867 19.212 6.5 18.8571 6.5Z" fill="url(#paint8_linear_2289_110132)"/>
<path fill-rule="evenodd" clip-rule="evenodd" d="M10.3332 10.75C10.5633 10.75 10.7498 10.9365 10.7498 11.1667V16.1667C10.7498 16.3968 10.5633 16.5833 10.3332 16.5833C10.1031 16.5833 9.9165 16.3968 9.9165 16.1667V11.1667C9.9165 10.9365 10.1031 10.75 10.3332 10.75ZM13.6665 10.75C13.8966 10.75 14.0832 10.9365 14.0832 11.1667V16.1667C14.0832 16.3968 13.8966 16.5833 13.6665 16.5833C13.4364 16.5833 13.2498 16.3968 13.2498 16.1667V11.1667C13.2498 10.9365 13.4364 10.75 13.6665 10.75Z" fill="#800000"/>
<path fill-rule="evenodd" clip-rule="evenodd" d="M10.3332 10.75C10.5633 10.75 10.7498 10.9365 10.7498 11.1667V16.1667C10.7498 16.3968 10.5633 16.5833 10.3332 16.5833C10.1031 16.5833 9.9165 16.3968 9.9165 16.1667V11.1667C9.9165 10.9365 10.1031 10.75 10.3332 10.75ZM13.6665 10.75C13.8966 10.75 14.0832 10.9365 14.0832 11.1667V16.1667C14.0832 16.3968 13.8966 16.5833 13.6665 16.5833C13.4364 16.5833 13.2498 16.3968 13.2498 16.1667V11.1667C13.2498 10.9365 13.4364 10.75 13.6665 10.75Z" fill="url(#paint9_linear_2289_110132)"/>
</g>
<defs>
<linearGradient id="paint0_linear_2289_110132" x1="12" y1="0" x2="12" y2="24" gradientUnits="userSpaceOnUse">
<stop offset="0.4" stop-color="#ECECEC"/>
<stop offset="1" stop-color="#B8BCBF"/>
</linearGradient>
<radialGradient id="paint1_radial_2289_110132" cx="0" cy="0" r="1" gradientUnits="userSpaceOnUse" gradientTransform="translate(12 12) rotate(90) scale(12)">
<stop offset="0.39" stop-color="#E1E1E1"/>
<stop offset="1" stop-color="white" stop-opacity="0"/>
</radialGradient>
<linearGradient id="paint2_linear_2289_110132" x1="12" y1="9" x2="12" y2="21" gradientUnits="userSpaceOnUse">
<stop stop-color="#838383"/>
<stop offset="1" stop-color="#131313"/>
</linearGradient>
<linearGradient id="paint3_linear_2289_110132" x1="12" y1="1.93647" x2="12" y2="-5.49998" gradientUnits="userSpaceOnUse">
<stop stop-color="#66A669" stop-opacity="0"/>
<stop offset="1" stop-color="#66A669"/>
</linearGradient>
<linearGradient id="paint4_linear_2289_110132" x1="6.1665" y1="7.83331" x2="16.5369" y2="19.5" gradientUnits="userSpaceOnUse">
<stop stop-color="white" stop-opacity="0.9"/>
<stop offset="1" stop-color="#E3A09B"/>
</linearGradient>
<linearGradient id="paint5_linear_2289_110132" x1="11.9998" y1="7.83331" x2="11.9998" y2="19.5" gradientUnits="userSpaceOnUse">
<stop offset="0.4" stop-color="#BABABA"/>
<stop offset="1" stop-color="#5E5E5E"/>
</linearGradient>
<linearGradient id="paint6_linear_2289_110132" x1="12.0003" y1="7.83337" x2="12.0003" y2="19.5" gradientUnits="userSpaceOnUse">
<stop stop-color="white"/>
<stop offset="1" stop-color="white" stop-opacity="0"/>
</linearGradient>
<linearGradient id="paint7_linear_2289_110132" x1="14.9167" y1="7.83331" x2="14.9167" y2="19.5" gradientUnits="userSpaceOnUse">
<stop stop-color="white"/>
<stop offset="1" stop-color="white" stop-opacity="0"/>
</linearGradient>
<linearGradient id="paint8_linear_2289_110132" x1="12" y1="4.5" x2="12" y2="7.83333" gradientUnits="userSpaceOnUse">
<stop stop-color="#838383"/>
<stop offset="1" stop-color="#131313"/>
</linearGradient>
<linearGradient id="paint9_linear_2289_110132" x1="11.9998" y1="10.75" x2="11.9998" y2="16.5833" gradientUnits="userSpaceOnUse">
<stop stop-color="#838383"/>
<stop offset="1" stop-color="#131313"/>
</linearGradient>
<clipPath id="clip0_2289_110132">
<rect width="24" height="24" fill="white"/>
</clipPath>
</defs>
</svg>
