<svg width="24" height="24" viewBox="0 0 24 24" fill="none" xmlns="http://www.w3.org/2000/svg">
<g clip-path="url(#clip0_2298_110427)">
<mask id="mask0_2298_110427" style="mask-type:alpha" maskUnits="userSpaceOnUse" x="0" y="0" width="24" height="24">
<rect width="24" height="24" rx="8" fill="url(#paint0_linear_2298_110427)"/>
</mask>
<g mask="url(#mask0_2298_110427)">
<rect width="24" height="24" rx="8" fill="url(#paint1_linear_2298_110427)"/>
<rect width="24" height="24" rx="8" fill="url(#paint2_radial_2298_110427)" fill-opacity="0.2" style="mix-blend-mode:hard-light"/>
<rect x="6" y="17" width="13" height="3" rx="1.5" transform="rotate(-90 6 17)" fill="#393939"/>
<rect x="11" y="21" width="8" height="3" rx="1.5" transform="rotate(-90 11 21)" fill="#393939"/>
<path d="M16.6103 6.756L7.2514 4.32512C6.61806 4.16062 6 4.63865 6 5.293V10.6409C6 11.3153 6.65379 11.7963 7.29757 11.5956L16.6565 8.67859C17.6168 8.37926 17.5839 7.00889 16.6103 6.756Z" fill="#393939"/>
<path d="M16.6103 5.75594L7.2514 3.32506C6.61806 3.16056 6 3.63859 6 4.29294V9.64088C6 10.3152 6.65379 10.7962 7.29757 10.5956L16.6565 7.67853C17.6168 7.3792 17.5839 6.00882 16.6103 5.75594Z" fill="url(#paint3_linear_2298_110427)"/>
<path fill-rule="evenodd" clip-rule="evenodd" d="M16.4846 6.23988L7.1257 3.809C6.80903 3.72675 6.5 3.96577 6.5 4.29294V9.64088C6.5 9.97805 6.82689 10.2186 7.14879 10.1182L16.5077 7.20118C16.9878 7.05151 16.9714 6.36633 16.4846 6.23988ZM7.2514 3.32506L16.6103 5.75594C17.5839 6.00882 17.6168 7.3792 16.6565 7.67853L7.29757 10.5956C6.65379 10.7962 6 10.3152 6 9.64088V4.29294C6 3.63859 6.61806 3.16056 7.2514 3.32506Z" fill="#AE2801"/>
<path d="M19.0976 13.8404L12.2216 12.2777C11.5959 12.1355 11 12.6111 11 13.2529V16.6908C11 17.3502 11.627 17.8291 12.2631 17.6556L19.1391 15.7803C20.1435 15.5064 20.1128 14.0712 19.0976 13.8404Z" fill="#393939"/>
<path d="M19.0976 12.8404L12.2216 11.2777C11.5959 11.1355 11 11.6111 11 12.2528V15.6908C11 16.3502 11.627 16.829 12.2631 16.6555L19.1391 14.7803C20.1435 14.5063 20.1128 13.0711 19.0976 12.8404Z" fill="url(#paint4_linear_2298_110427)"/>
<path fill-rule="evenodd" clip-rule="evenodd" d="M18.9868 13.328L12.1108 11.7652C11.7979 11.6941 11.5 11.9319 11.5 12.2528V15.6908C11.5 16.0205 11.8135 16.2599 12.1316 16.1732L19.0075 14.2979C19.5098 14.1609 19.4944 13.4433 18.9868 13.328ZM12.2216 11.2777L19.0976 12.8404C20.1128 13.0711 20.1435 14.5063 19.1391 14.7803L12.2631 16.6555C11.627 16.829 11 16.3502 11 15.6908V12.2528C11 11.6111 11.5959 11.1355 12.2216 11.2777Z" fill="#AE2801"/>
</g>
</g>
<defs>
<linearGradient id="paint0_linear_2298_110427" x1="12" y1="0" x2="12" y2="24" gradientUnits="userSpaceOnUse">
<stop stop-color="#1E7ADE"/>
<stop offset="1" stop-color="#8451F0"/>
</linearGradient>
<linearGradient id="paint1_linear_2298_110427" x1="12" y1="0" x2="12" y2="24" gradientUnits="userSpaceOnUse">
<stop offset="0.4" stop-color="#ECECEC"/>
<stop offset="1" stop-color="#B8BCBF"/>
</linearGradient>
<radialGradient id="paint2_radial_2298_110427" cx="0" cy="0" r="1" gradientUnits="userSpaceOnUse" gradientTransform="translate(12 12) rotate(90) scale(12)">
<stop offset="0.39" stop-color="#E1E1E1"/>
<stop offset="1" stop-color="white" stop-opacity="0"/>
</radialGradient>
<linearGradient id="paint3_linear_2298_110427" x1="13" y1="2.99994" x2="13" y2="10.9999" gradientUnits="userSpaceOnUse">
<stop stop-color="#FFAE12"/>
<stop offset="1" stop-color="#FF5353"/>
</linearGradient>
<linearGradient id="paint4_linear_2298_110427" x1="17" y1="10.9999" x2="17" y2="16.9999" gradientUnits="userSpaceOnUse">
<stop stop-color="#FFAE12"/>
<stop offset="1" stop-color="#FF5353"/>
</linearGradient>
<clipPath id="clip0_2298_110427">
<rect width="24" height="24" fill="white"/>
</clipPath>
</defs>
</svg>
